<svg width="61" height="61" viewBox="0 0 61 61" fill="none" xmlns="http://www.w3.org/2000/svg">
<circle cx="30.5" cy="30.5" r="30.5" fill="url(#paint0_linear_20_2078)"/>
<path d="M26.0795 33.302C25.9261 33.2729 25.7685 33.2314 25.6068 33.1816C25.4286 33.1235 25.2669 33.0529 25.1176 32.9657C24.9684 32.8785 24.8482 32.7706 24.7611 32.646C24.6367 32.4841 24.5538 32.2433 24.5165 31.9278C24.4792 31.6122 24.4543 31.276 24.4419 30.9106C24.4295 30.4954 24.4212 29.9972 24.4212 29.4202V27.5561C24.4585 27.4564 24.4916 27.3817 24.5248 27.3402C24.558 27.2945 24.6202 27.2737 24.7238 27.2737C24.8109 27.2737 24.9145 27.3194 25.0347 27.4066C25.155 27.4938 25.3747 27.7221 25.7022 28.0833C26.4816 28.9386 27.2278 29.7814 27.9492 30.62C28.6705 31.4545 30.8636 33.7171 31.6637 34.6471C31.7384 34.7343 31.8088 34.8007 31.871 34.8464C31.9332 34.8921 31.9913 34.9253 32.041 34.9502H36.2738V34.7634C35.9214 34.7385 35.6063 34.6928 35.3244 34.6305C35.0425 34.5682 34.8186 34.506 34.657 34.4437C34.6197 34.4312 34.545 34.3814 34.4331 34.2942C34.3212 34.207 32.7582 32.7207 32.609 32.6045C32.4597 32.4841 32.3022 32.3512 32.1364 32.1976C31.9747 32.0482 31.8296 31.8946 31.7052 31.7451C31.1787 31.1556 30.6273 30.5411 30.0594 29.8976C29.4872 29.2582 28.9524 28.6521 28.4508 28.0875C27.9492 27.5228 27.5139 27.0288 27.1532 26.6095C26.7884 26.1902 26.5562 25.9161 26.4567 25.7874C26.6681 25.5632 26.9045 25.3183 27.1615 25.0609C27.4185 24.8035 27.6838 24.5378 27.9533 24.2596C28.2228 23.9815 28.4964 23.7074 28.77 23.4293C29.0478 23.1511 29.3173 22.8937 29.5784 22.6571C30.2542 22.0302 30.9217 21.4738 31.5725 20.9964C32.2234 20.519 32.8702 20.2491 33.5127 20.1868V20H28.4674V20.1868C28.7949 20.2366 29.081 20.3446 29.3339 20.5065C29.5826 20.6684 29.7111 20.9341 29.7111 21.2995C29.7111 21.5154 29.6241 21.752 29.4582 22.0177C29.2882 22.2793 29.0975 22.5408 28.8861 22.7899C28.5835 23.1179 28.2269 23.4999 27.8124 23.9399C27.3978 24.38 26.9791 24.8076 26.5604 25.2228C26.1416 25.638 25.7395 26.0116 25.3539 26.3438C24.9725 26.6759 24.6658 26.9125 24.4419 27.0495V24.1268C24.4419 23.7988 24.4419 23.5123 24.4502 23.2591C24.4543 23.0058 24.4668 22.736 24.4792 22.4495C24.4916 21.9222 24.558 21.5154 24.6782 21.2247C24.7984 20.9341 24.9435 20.7182 25.1218 20.5729C25.2959 20.4276 25.499 20.3363 25.7229 20.2906C25.9468 20.2449 26.179 20.2117 26.4194 20.1868V20H20.5864V20.1868C20.9139 20.2242 21.1999 20.2948 21.4528 20.3944C21.7057 20.494 21.9171 20.6518 22.0913 20.8635C22.2281 21.0379 22.3151 21.3285 22.3442 21.7312C22.3773 22.134 22.3898 22.574 22.3898 23.0515V28.9303C22.3898 29.2832 22.3898 29.607 22.3815 29.9101C22.3732 30.2131 22.3732 30.4498 22.3732 30.6283C22.3732 30.8276 22.3732 31.0393 22.3649 31.2594C22.3566 31.4794 22.3441 31.687 22.3276 31.8821C22.3068 32.0772 22.282 32.2516 22.2405 32.4011C22.2032 32.5505 22.1534 32.6626 22.0913 32.7415C21.942 32.9159 21.7223 33.057 21.4321 33.1567C21.1419 33.2563 20.8434 33.331 20.5283 33.385V33.5718H26.0131C26.0338 33.4847 26.0546 33.3933 26.0795 33.3061" fill="white"/>
<path d="M31.9 27.8983C31.2367 28.0726 30.6397 28.3093 30.1132 28.6041C30.08 28.6248 30.0468 28.6456 30.0095 28.6663C30.2956 28.9445 30.5775 29.231 30.8553 29.5216C31.2159 29.1355 31.6264 28.8075 32.0907 28.5376C32.7664 28.1474 33.5375 27.9522 34.404 27.9522C35.03 27.9522 35.6228 28.0643 36.1825 28.2927C36.7422 28.5169 37.2438 28.8283 37.6874 29.2144C38.131 29.6046 38.5207 30.0613 38.8441 30.5886C39.1716 31.1158 39.4162 31.6805 39.5779 32.2866L39.8017 32.27V28.0477H39.5945C39.5198 28.1598 39.4369 28.2719 39.3498 28.3799C39.2628 28.4878 39.1757 28.5791 39.097 28.6622C39.0141 28.7452 38.9394 28.8116 38.8731 28.8698C38.8026 28.9279 38.757 28.957 38.7321 28.957C38.7073 28.957 38.5953 28.8864 38.3922 28.7494C38.1932 28.6124 37.903 28.4588 37.5257 28.2968C37.1485 28.1349 36.68 27.9813 36.112 27.8443C35.5441 27.7073 34.889 27.6367 34.1345 27.6367C33.3054 27.6367 32.5591 27.7239 31.8958 27.8983" fill="white"/>
<path d="M38.9313 38.6124C38.6245 39.123 38.2472 39.5714 37.8036 39.9617C37.36 40.3519 36.8501 40.6675 36.278 40.9041C35.7059 41.1408 35.0965 41.2611 34.4414 41.2611C33.6123 41.2611 32.8619 41.0909 32.182 40.7505C31.5063 40.4101 30.9259 39.9492 30.4491 39.3638C29.9723 38.7784 29.6034 38.0934 29.3463 37.3004C29.0893 36.5075 28.9608 35.6605 28.9608 34.7555C28.9608 34.1867 29.023 33.6262 29.1307 33.074C29.1142 33.0574 29.0934 33.045 29.0769 33.0284C28.5503 32.4554 28.0238 31.8784 27.5098 31.293C27.3937 31.5089 27.2859 31.7206 27.1988 31.9323C27.0537 32.2894 26.9418 32.634 26.8589 32.9578C26.776 33.2858 26.7221 33.593 26.6889 33.8836C26.6557 34.1742 26.6433 34.4316 26.6433 34.6558C26.6433 35.673 26.8174 36.6071 27.1698 37.4541C27.5222 38.301 28.028 39.0317 28.683 39.642C29.3422 40.2523 30.1423 40.7214 31.0834 41.0536C32.0245 41.3857 33.0775 41.5518 34.2466 41.5518C34.9472 41.5518 35.5691 41.4936 36.108 41.3732C36.647 41.2528 37.1071 41.1158 37.4802 40.9581C37.8575 40.8003 38.1436 40.655 38.3467 40.5263C38.5457 40.3934 38.6618 40.327 38.6867 40.327C38.7488 40.327 38.8608 40.4142 39.0266 40.5927C39.1883 40.7671 39.3458 40.9622 39.4951 41.1781H39.7231L39.777 37.0306H39.5531C39.4412 37.5703 39.2297 38.0976 38.923 38.6041" fill="white"/>
<defs>
<linearGradient id="paint0_linear_20_2078" x1="0" y1="0" x2="64.05" y2="66.49" gradientUnits="userSpaceOnUse">
<stop stop-color="#831B23"/>
<stop offset="1" stop-color="#43070B"/>
</linearGradient>
</defs>
</svg>
