<svg width="38" height="30" viewBox="0 0 38 30" fill="none" xmlns="http://www.w3.org/2000/svg">
<path d="M1 1C4.6 1 4.59994 5 8.18994 5C11.7799 5 11.7899 1 15.3799 1C18.9699 1 18.9801 5 22.5801 5C26.1801 5 26.18 1 29.79 1C33.4 1 33.39 5 37 5" stroke="white" stroke-linecap="round" stroke-linejoin="round"/>
<path d="M1 13C4.6 13 4.59994 17 8.18994 17C11.7799 17 11.7899 13 15.3799 13C18.9699 13 18.9801 17 22.5801 17C26.1801 17 26.18 13 29.79 13C33.4 13 33.39 17 37 17" stroke="white" stroke-linecap="round" stroke-linejoin="round"/>
<path d="M1 25C4.6 25 4.59994 29 8.18994 29C11.7799 29 11.7899 25 15.3799 25C18.9699 25 18.9801 29 22.5801 29C26.1801 29 26.18 25 29.79 25C33.4 25 33.39 29 37 29" stroke="white" stroke-linecap="round" stroke-linejoin="round"/>
</svg>
