<svg width="112" height="69" viewBox="0 0 112 69" fill="none" xmlns="http://www.w3.org/2000/svg">
<path d="M49.6474 40.2454C49.433 40.2047 49.2128 40.1467 48.9868 40.0771C48.7376 39.9958 48.5116 39.8972 48.3029 39.7753C48.0943 39.6534 47.9263 39.5025 47.8046 39.3284C47.6307 39.1021 47.5148 38.7655 47.4627 38.3244C47.4105 37.8834 47.3757 37.4133 47.3583 36.9026C47.341 36.3223 47.3294 35.6259 47.3294 34.8192V32.2135C47.3815 32.0742 47.4279 31.9698 47.4742 31.9117C47.5206 31.8479 47.6075 31.8189 47.7524 31.8189C47.8741 31.8189 48.019 31.8827 48.187 32.0046C48.3551 32.1264 48.6622 32.4456 49.12 32.9505C50.2095 34.146 51.2526 35.3241 52.261 36.4964C53.2693 37.6629 56.3349 40.8257 57.4533 42.1256C57.5576 42.2475 57.6561 42.3404 57.7431 42.4042C57.83 42.468 57.9111 42.5145 57.9807 42.5493H63.8974V42.2881C63.4048 42.2533 62.9644 42.1895 62.5704 42.1024C62.1763 42.0154 61.8634 41.9283 61.6374 41.8413C61.5852 41.8239 61.4809 41.7542 61.3244 41.6324C61.168 41.5105 58.9832 39.4329 58.7746 39.2704C58.566 39.1021 58.3458 38.9164 58.114 38.7017C57.888 38.4927 57.6851 38.278 57.5113 38.0691C56.7753 37.245 56.0046 36.3861 55.2106 35.4866C54.4109 34.5929 53.6634 33.7456 52.9622 32.9563C52.261 32.1671 51.6525 31.4765 51.1483 30.8903C50.6383 30.3042 50.3138 29.9212 50.1747 29.7413C50.4703 29.4279 50.8006 29.0855 51.1599 28.7257C51.5192 28.3659 51.8901 27.9944 52.2668 27.6056C52.6434 27.2168 53.0259 26.8338 53.4084 26.4449C53.7966 26.0561 54.1733 25.6963 54.5384 25.3655C55.483 24.4892 56.416 23.7116 57.3258 23.0442C58.2357 22.3768 59.1397 21.9996 60.0379 21.9125V21.6514H52.9853V21.9125C53.4431 21.9822 53.843 22.133 54.1965 22.3594C54.5442 22.5857 54.7239 22.9571 54.7239 23.4678C54.7239 23.7696 54.6022 24.1004 54.3704 24.4718C54.1328 24.8374 53.8662 25.203 53.5706 25.5512C53.1476 26.0097 52.6492 26.5436 52.0697 27.1588C51.4902 27.7739 50.9049 28.3717 50.3196 28.952C49.7343 29.5323 49.1722 30.0546 48.6333 30.5189C48.1001 30.9832 47.6713 31.314 47.3583 31.5055V27.4199C47.3583 26.9614 47.3583 26.561 47.3699 26.207C47.3757 25.853 47.3931 25.4758 47.4105 25.0754C47.4279 24.3383 47.5206 23.7696 47.6887 23.3634C47.8567 22.9571 48.0595 22.6553 48.3087 22.4522C48.5521 22.2491 48.8361 22.1214 49.149 22.0576C49.4619 21.9938 49.7865 21.9473 50.1226 21.9125V21.6514H41.9689V21.9125C42.4268 21.9647 42.8266 22.0634 43.1801 22.2027C43.5336 22.342 43.8292 22.5625 44.0726 22.8585C44.2638 23.1022 44.3855 23.5084 44.4261 24.0714C44.4724 24.6343 44.4898 25.2495 44.4898 25.9168V34.1344C44.4898 34.6277 44.4898 35.0804 44.4782 35.504C44.4666 35.9276 44.4666 36.2584 44.4666 36.508C44.4666 36.7865 44.4666 37.0825 44.455 37.3901C44.4434 37.6977 44.426 37.9878 44.4029 38.2606C44.3739 38.5334 44.3391 38.7771 44.2812 38.986C44.229 39.1949 44.1595 39.3516 44.0726 39.4619C43.8639 39.7056 43.5568 39.903 43.1511 40.0422C42.7455 40.1815 42.3282 40.286 41.8878 40.3614V40.6226H49.5547C49.5836 40.5007 49.6126 40.373 49.6474 40.2512" fill="#284C5B"/>
<path d="M57.7837 32.6898C56.8565 32.9336 56.022 33.2644 55.286 33.6764C55.2396 33.7054 55.1933 33.7344 55.1411 33.7635C55.541 34.1523 55.935 34.5527 56.3233 34.9589C56.8275 34.4192 57.4012 33.9608 58.0502 33.5835C58.9948 33.038 60.0727 32.7653 61.2839 32.7653C62.1589 32.7653 62.9876 32.922 63.7699 33.2411C64.5523 33.5545 65.2535 33.9898 65.8736 34.5295C66.4936 35.075 67.0384 35.7134 67.4904 36.4504C67.9482 37.1874 68.2901 37.9767 68.5161 38.824L68.829 38.8008V32.8988H68.5393C68.435 33.0554 68.3191 33.2121 68.1974 33.363C68.0757 33.5139 67.954 33.6416 67.8439 33.7576C67.728 33.8737 67.6237 33.9666 67.5309 34.0478C67.4324 34.1291 67.3687 34.1697 67.3339 34.1697C67.2991 34.1697 67.1427 34.071 66.8587 33.8795C66.5805 33.688 66.1749 33.4733 65.6475 33.247C65.1202 33.0206 64.4654 32.8059 63.6714 32.6144C62.8775 32.4229 61.9619 32.3242 60.9072 32.3242C59.7482 32.3242 58.7051 32.4461 57.7779 32.6898" fill="#284C5B"/>
<path d="M67.6121 47.6679C67.1832 48.3817 66.6559 49.0084 66.0358 49.554C65.4158 50.0995 64.703 50.5405 63.9032 50.8713C63.1035 51.2021 62.2517 51.3704 61.336 51.3704C60.177 51.3704 59.1281 51.1325 58.1777 50.6566C57.2331 50.1807 56.4218 49.5365 55.7554 48.7183C55.089 47.9 54.5732 46.9424 54.2139 45.834C53.8546 44.7256 53.675 43.5417 53.675 42.2765C53.675 41.4815 53.7619 40.698 53.9126 39.9262C53.8894 39.903 53.8604 39.8855 53.8372 39.8623C53.1013 39.0615 52.3653 38.2548 51.6467 37.4365C51.4844 37.7383 51.3338 38.0343 51.2121 38.3302C51.0093 38.8293 50.8528 39.311 50.7369 39.7637C50.621 40.2221 50.5457 40.6516 50.4993 41.0578C50.4529 41.4641 50.4355 41.8239 50.4355 42.1373C50.4355 43.5591 50.6789 44.8648 51.1715 46.0487C51.6641 47.2326 52.3711 48.254 53.2867 49.1071C54.2081 49.9602 55.3266 50.616 56.642 51.0802C57.9575 51.5445 59.4295 51.7766 61.0637 51.7766C62.043 51.7766 62.9123 51.6954 63.6656 51.5271C64.419 51.3588 65.0623 51.1673 65.5838 50.9468C66.1112 50.7262 66.511 50.5231 66.795 50.3432C67.0731 50.1575 67.2354 50.0646 67.2702 50.0646C67.3571 50.0646 67.5136 50.1865 67.7454 50.4361C67.9714 50.6798 68.1916 50.9526 68.4002 51.2543H68.7189L68.7943 45.4568H68.4813C68.3249 46.2112 68.0293 46.9482 67.6005 47.6563" fill="#284C5B"/>
<path d="M34.1864 36.8159C34.563 36.7811 34.8412 36.4503 34.8064 36.0731C34.7716 35.6959 34.4413 35.4173 34.0647 35.4522C33.688 35.487 33.4098 35.8178 33.4446 36.195C33.4736 36.549 33.7749 36.8218 34.1284 36.8218C34.1458 36.8218 34.169 36.8218 34.1864 36.8218" fill="#284C5B"/>
<path d="M34.0066 30.6645C34.3832 30.6645 34.6904 30.3569 34.6904 29.9797C34.6904 29.6025 34.3832 29.2949 34.0066 29.2949C33.6299 29.2949 33.3228 29.6025 33.3228 29.9797C33.3228 30.3569 33.6299 30.6645 34.0066 30.6645Z" fill="#284C5B"/>
<path d="M34.0066 33.7456C34.3832 33.7456 34.6904 33.438 34.6904 33.0608C34.6904 32.6836 34.3832 32.376 34.0066 32.376C33.6299 32.376 33.3228 32.6836 33.3228 33.0608C33.3228 33.438 33.6299 33.7456 34.0066 33.7456Z" fill="#284C5B"/>
<path d="M34.0066 24.5073C34.3832 24.5073 34.6904 24.1997 34.6904 23.8225C34.6904 23.4453 34.3832 23.1377 34.0066 23.1377C33.6299 23.1377 33.3228 23.4453 33.3228 23.8225C33.3228 24.1997 33.6299 24.5073 34.0066 24.5073Z" fill="#284C5B"/>
<path d="M34.0066 27.5825C34.3832 27.5825 34.6904 27.2749 34.6904 26.8977C34.6904 26.5205 34.3832 26.2129 34.0066 26.2129C33.6299 26.2129 33.3228 26.5205 33.3228 26.8977C33.3228 27.2749 33.6299 27.5825 34.0066 27.5825Z" fill="#284C5B"/>
<path d="M34.0066 21.4253C34.3832 21.4253 34.6904 21.1177 34.6904 20.7405C34.6904 20.3632 34.3832 20.0557 34.0066 20.0557C33.6299 20.0557 33.3228 20.3632 33.3228 20.7405C33.3228 21.1177 33.6299 21.4253 34.0066 21.4253Z" fill="#284C5B"/>
<path d="M39.0772 51.2319C39.2047 51.2319 39.3322 51.1971 39.4481 51.1216C39.7668 50.9185 39.8538 50.489 39.6509 50.1757C39.4423 49.8565 39.0193 49.7694 38.7063 49.9725C38.3876 50.1757 38.3007 50.5993 38.5035 50.9185C38.6368 51.1216 38.8512 51.2319 39.0772 51.2319Z" fill="#284C5B"/>
<path d="M73.7663 48.4635C73.8301 48.4809 73.8938 48.4925 73.9576 48.4925C74.2531 48.4925 74.5255 48.2952 74.6124 47.9992C74.7167 47.6336 74.5081 47.2564 74.1488 47.1519C73.7895 47.0475 73.407 47.2564 73.3027 47.6162C73.1984 47.9818 73.407 48.359 73.7721 48.4635" fill="#284C5B"/>
<path d="M35.2179 39.0564C35.1483 38.685 34.789 38.4413 34.4182 38.5109C34.0473 38.5805 33.8039 38.9403 33.8734 39.3118C33.9372 39.6426 34.2211 39.8689 34.5457 39.8689C34.5862 39.8689 34.6268 39.8689 34.6731 39.8573C35.044 39.7876 35.2874 39.4278 35.2179 39.0564Z" fill="#284C5B"/>
<path d="M74.6243 44.7959C74.52 45.1615 74.7286 45.5387 75.0879 45.6432C75.1516 45.6606 75.2154 45.6722 75.2791 45.6722C75.5747 45.6722 75.847 45.4749 75.934 45.1789C76.0383 44.8133 75.8297 44.4361 75.4704 44.3316C75.1111 44.2271 74.7286 44.4361 74.6243 44.7959Z" fill="#284C5B"/>
<path d="M37.2577 47.146C36.8926 47.2504 36.684 47.6335 36.7883 47.9933C36.8753 48.2892 37.1476 48.4866 37.4432 48.4866C37.5069 48.4866 37.5707 48.4807 37.6344 48.4575C37.9995 48.3531 38.2081 47.9701 38.098 47.6102C37.9937 47.2446 37.6112 47.0357 37.2519 47.1402" fill="#284C5B"/>
<path d="M35.9131 41.9867C35.8088 41.6211 35.4263 41.418 35.0671 41.5225C34.702 41.6269 34.4933 42.01 34.5977 42.3698C34.6846 42.6657 34.9569 42.8631 35.2525 42.8631C35.3162 42.8631 35.38 42.8515 35.4437 42.834C35.8088 42.7296 36.0174 42.3466 35.9131 41.9867Z" fill="#284C5B"/>
<path d="M36.1276 45.6718C36.1913 45.6718 36.255 45.666 36.3188 45.6428C36.6839 45.5383 36.8925 45.1553 36.7824 44.7955C36.6781 44.4299 36.2956 44.221 35.9363 44.3312C35.5712 44.4357 35.3626 44.8187 35.4669 45.1785C35.5538 45.4803 35.8262 45.6718 36.1218 45.6718" fill="#284C5B"/>
<path d="M33.3749 17.9148C33.3923 17.9554 33.4155 17.996 33.4387 18.0308C33.4618 18.0656 33.4908 18.1005 33.5256 18.1353C33.5546 18.1643 33.5893 18.1933 33.6299 18.2223C33.6647 18.2455 33.7052 18.2688 33.7458 18.2862C33.7864 18.3036 33.8327 18.3152 33.8733 18.3268C33.9196 18.3326 33.9602 18.3384 34.0066 18.3384C34.1862 18.3384 34.3659 18.263 34.4934 18.1353C34.5223 18.1005 34.5513 18.0656 34.5803 18.0308C34.6093 17.996 34.6266 17.9554 34.644 17.9148C34.6614 17.8741 34.673 17.8277 34.6846 17.7871C34.6904 17.7407 34.6962 17.7 34.6962 17.6536C34.6962 17.4737 34.6208 17.2938 34.4934 17.1719C34.3311 17.0152 34.0993 16.9398 33.8733 16.9862C33.8327 16.992 33.7864 17.0094 33.7458 17.0268C33.7052 17.0442 33.6647 17.0675 33.6299 17.0907C33.5893 17.1139 33.5546 17.1429 33.5256 17.1777C33.3981 17.3054 33.3228 17.4795 33.3228 17.6594C33.3228 17.7058 33.3228 17.7465 33.3343 17.7929C33.3401 17.8335 33.3575 17.8799 33.3749 17.9206" fill="#284C5B"/>
<path d="M42.873 18.4421C42.9136 18.4421 42.96 18.4421 43.0005 18.4305C43.3714 18.3609 43.6148 18.0011 43.5453 17.6297C43.4757 17.2582 43.1164 17.0145 42.7456 17.0841C42.3747 17.1538 42.1313 17.5136 42.2008 17.885C42.2646 18.2158 42.5485 18.4421 42.873 18.4421Z" fill="#284C5B"/>
<path d="M45.7533 17.6997C45.8228 17.6997 45.8982 17.6881 45.9677 17.6649C46.327 17.5488 46.5241 17.16 46.4024 16.8002C46.2865 16.4403 45.8982 16.2488 45.5389 16.3649C45.1796 16.481 44.9826 16.8698 45.1043 17.2296C45.197 17.5198 45.4636 17.6997 45.7533 17.6997Z" fill="#284C5B"/>
<path d="M48.506 16.5912C48.6045 16.5912 48.703 16.568 48.8015 16.5216C49.1434 16.3591 49.2825 15.947 49.1202 15.6046C48.958 15.2622 48.5465 15.123 48.2104 15.2855C47.8685 15.448 47.7294 15.86 47.8917 16.2024C48.0076 16.4461 48.251 16.5912 48.5118 16.5912" fill="#284C5B"/>
<path d="M51.0963 15.123C51.2237 15.123 51.357 15.0882 51.4729 15.0127C51.7917 14.8038 51.8786 14.3801 51.67 14.0668C51.4613 13.7476 51.0383 13.6605 50.7254 13.8694C50.4066 14.0784 50.3197 14.502 50.5283 14.8154C50.6616 15.0185 50.876 15.123 51.102 15.123" fill="#284C5B"/>
<path d="M53.4664 13.33C53.6229 13.33 53.7793 13.2778 53.9068 13.1675C54.1966 12.9238 54.2314 12.4885 53.988 12.2041C53.7446 11.914 53.3099 11.8792 53.0202 12.1229C52.7304 12.3666 52.6957 12.8019 52.9449 13.0863C53.0781 13.2429 53.2694 13.33 53.4664 13.33Z" fill="#284C5B"/>
<path d="M39.9235 18.7967C39.9235 18.7967 39.9467 18.7967 39.9583 18.7967C40.335 18.7793 40.6247 18.4543 40.6015 18.0771C40.5784 17.6999 40.2596 17.4097 39.883 17.4329C39.5063 17.4504 39.2165 17.7753 39.2397 18.1526C39.2629 18.5182 39.5584 18.8025 39.9235 18.8025" fill="#284C5B"/>
<path d="M36.8984 18.7613C36.8984 18.7613 36.9332 18.7613 36.9506 18.7613C37.3041 18.7613 37.6054 18.4886 37.6344 18.1288C37.6634 17.7515 37.3794 17.4207 37.0086 17.3917C36.6319 17.3627 36.3016 17.6413 36.2726 18.0185C36.2436 18.3957 36.5218 18.7265 36.8984 18.7555" fill="#284C5B"/>
<path d="M55.7381 11.3969C55.9177 11.3969 56.0916 11.3215 56.2191 11.1938C56.248 11.1648 56.277 11.13 56.306 11.0894C56.3292 11.0545 56.3523 11.0139 56.3697 10.9733C56.3871 10.9327 56.3987 10.892 56.4103 10.8456C56.4219 10.805 56.4219 10.7586 56.4219 10.7121C56.4219 10.6657 56.4219 10.6251 56.4103 10.5787C56.3987 10.5322 56.3871 10.4916 56.3697 10.451C56.3523 10.4104 56.335 10.3697 56.306 10.3349C56.2828 10.3001 56.2538 10.2595 56.2191 10.2305C56.1843 10.2014 56.1495 10.1724 56.1147 10.1434C56.0742 10.1202 56.0394 10.097 55.9988 10.0796C55.9583 10.0622 55.9119 10.0506 55.8714 10.039C55.6454 9.99252 55.4135 10.068 55.2513 10.2247C55.1238 10.3523 55.0485 10.5264 55.0485 10.7063C55.0485 10.8862 55.118 11.0603 55.2513 11.1938C55.3846 11.3273 55.5526 11.3969 55.7381 11.3969Z" fill="#284C5B"/>
<path d="M59.9973 15.0127C60.1132 15.0881 60.2407 15.1229 60.374 15.1229C60.5942 15.1229 60.8144 15.0127 60.9477 14.8153C61.1563 14.502 61.0694 14.0725 60.7506 13.8636C60.4377 13.6547 60.0089 13.7417 59.806 14.0609C59.5974 14.3801 59.6901 14.8037 60.0031 15.0127" fill="#284C5B"/>
<path d="M65.5026 17.6649C65.5722 17.6881 65.6475 17.6997 65.717 17.6997C66.0068 17.6997 66.2734 17.514 66.3661 17.2296C66.482 16.8698 66.2849 16.481 65.9314 16.3649C65.5722 16.2488 65.1839 16.4403 65.068 16.8002C64.9521 17.16 65.1433 17.5488 65.5026 17.6649Z" fill="#284C5B"/>
<path d="M62.6632 16.5216C62.7559 16.568 62.8602 16.5912 62.9587 16.5912C63.2137 16.5912 63.4571 16.4461 63.5788 16.2024C63.7411 15.86 63.602 15.4538 63.2601 15.2855C62.9182 15.123 62.5125 15.2622 62.3444 15.6046C62.1822 15.947 62.3213 16.3533 62.6632 16.5216Z" fill="#284C5B"/>
<path d="M71.5063 18.7967C71.5063 18.7967 71.5295 18.7967 71.5411 18.7967C71.9004 18.7967 72.2075 18.5123 72.2249 18.1467C72.2423 17.7695 71.9583 17.4445 71.5758 17.4271C71.1992 17.4039 70.8746 17.694 70.8573 18.0713C70.8341 18.4485 71.1238 18.7735 71.5005 18.7909" fill="#284C5B"/>
<path d="M57.9982 13.3295C58.1895 13.3295 58.3807 13.2483 58.5198 13.0858C58.7632 12.7956 58.7284 12.3662 58.4444 12.1224C58.1547 11.8787 57.7258 11.9135 57.4767 12.1979C57.2333 12.488 57.268 12.9175 57.5578 13.167C57.6853 13.2773 57.8418 13.3295 57.9982 13.3295Z" fill="#284C5B"/>
<path d="M74.514 18.7622C74.514 18.7622 74.5487 18.7622 74.5661 18.7622C74.9428 18.7332 75.2268 18.4024 75.1978 18.0252C75.1688 17.6479 74.8385 17.3636 74.4618 17.3984C74.0851 17.4274 73.8012 17.7582 73.8302 18.1354C73.8591 18.4952 74.1547 18.768 74.514 18.768" fill="#284C5B"/>
<path d="M68.4699 18.4305C68.5105 18.4363 68.5568 18.4421 68.5974 18.4421C68.9219 18.4421 69.2059 18.2158 69.2696 17.885C69.3392 17.5136 69.0958 17.1538 68.7249 17.0841C68.354 17.0145 67.9947 17.2582 67.9252 17.6297C67.8556 18.0011 68.099 18.3609 68.4699 18.4305Z" fill="#284C5B"/>
<path d="M76.8319 17.9142C76.8493 17.9548 76.8667 17.9954 76.8957 18.0303C76.9189 18.0651 76.9478 18.0999 76.9826 18.1347C77.0116 18.1637 77.0464 18.1928 77.0869 18.2218C77.1217 18.245 77.1623 18.2682 77.2028 18.2856C77.2434 18.303 77.2897 18.3146 77.3303 18.3262C77.3767 18.332 77.4172 18.3378 77.4636 18.3378C77.6432 18.3378 77.8171 18.2624 77.9446 18.1347C78.0721 18.0071 78.1474 17.8329 78.1474 17.653C78.1474 17.4731 78.0721 17.2932 77.9446 17.1714C77.9156 17.1423 77.8808 17.1133 77.8403 17.0843C77.8055 17.0611 77.7649 17.0379 77.7244 17.0205C77.6838 17.0031 77.6374 16.9915 77.5969 16.9799C77.51 16.9624 77.4172 16.9624 77.3303 16.9799C77.2897 16.9857 77.2434 17.0031 77.2028 17.0205C77.1623 17.0379 77.1217 17.0611 77.0869 17.0843C77.0464 17.1075 77.0174 17.1365 76.9826 17.1714C76.9478 17.2004 76.9189 17.2352 76.8957 17.2758C76.8725 17.3106 76.8493 17.3513 76.8319 17.3919C76.8146 17.4325 76.803 17.4789 76.7914 17.5196C76.7798 17.566 76.7798 17.6066 76.7798 17.653C76.7798 17.6995 76.7798 17.7401 76.7914 17.7865C76.803 17.8271 76.8146 17.8736 76.8319 17.9142Z" fill="#284C5B"/>
<path d="M76.7973 39.8573C76.8379 39.8631 76.8842 39.8689 76.9248 39.8689C77.2493 39.8689 77.5333 39.6425 77.597 39.3118C77.6666 38.9403 77.4232 38.5805 77.0523 38.5109C76.6814 38.4412 76.3221 38.685 76.2526 39.0622C76.183 39.4336 76.4264 39.7934 76.7973 39.8631" fill="#284C5B"/>
<path d="M77.4636 33.7339C77.8403 33.7339 78.1474 33.4263 78.1474 33.0491C78.1474 32.6718 77.8403 32.3643 77.4636 32.3643C77.0869 32.3643 76.7798 32.6718 76.7798 33.0491C76.7798 33.4263 77.0869 33.7339 77.4636 33.7339Z" fill="#284C5B"/>
<path d="M77.4636 24.4956C77.8403 24.4956 78.1474 24.188 78.1474 23.8108C78.1474 23.4336 77.8403 23.126 77.4636 23.126C77.0869 23.126 76.7798 23.4336 76.7798 23.8108C76.7798 24.188 77.0869 24.4956 77.4636 24.4956Z" fill="#284C5B"/>
<path d="M77.4636 27.5766C77.8403 27.5766 78.1474 27.269 78.1474 26.8918C78.1474 26.5146 77.8403 26.207 77.4636 26.207C77.0869 26.207 76.7798 26.5146 76.7798 26.8918C76.7798 27.269 77.0869 27.5766 77.4636 27.5766Z" fill="#284C5B"/>
<path d="M77.4636 21.4135C77.8403 21.4135 78.1474 21.106 78.1474 20.7287C78.1474 20.3515 77.8403 20.0439 77.4636 20.0439C77.0869 20.0439 76.7798 20.3515 76.7798 20.7287C76.7798 21.106 77.0869 21.4135 77.4636 21.4135Z" fill="#284C5B"/>
<path d="M77.2782 36.81C77.2782 36.81 77.3188 36.81 77.3362 36.81C77.6897 36.81 77.9852 36.5431 78.0142 36.1833C78.049 35.8061 77.7708 35.4753 77.3941 35.4404C77.0174 35.4056 76.6871 35.6842 76.6523 36.0614C76.6176 36.4386 76.8957 36.7694 77.2724 36.8042" fill="#284C5B"/>
<path d="M76.0207 42.8336C76.0845 42.851 76.1482 42.8626 76.212 42.8626C76.5075 42.8626 76.7799 42.6653 76.8668 42.3693C76.9711 42.0037 76.7625 41.6265 76.4032 41.522C76.0381 41.4176 75.6614 41.6265 75.5571 41.9863C75.4528 42.3519 75.6614 42.7291 76.0265 42.8336" fill="#284C5B"/>
<path d="M77.4636 30.6587C77.8403 30.6587 78.1474 30.3511 78.1474 29.9739C78.1474 29.5966 77.8403 29.2891 77.4636 29.2891C77.0869 29.2891 76.7798 29.5966 76.7798 29.9739C76.7798 30.3511 77.0869 30.6587 77.4636 30.6587Z" fill="#284C5B"/>
<path d="M71.8135 50.1753C71.6106 50.4945 71.6976 50.9181 72.0163 51.1212C72.1322 51.1967 72.2597 51.2315 72.3872 51.2315C72.6132 51.2315 72.8334 51.1212 72.9609 50.9181C73.1695 50.5989 73.0768 50.1753 72.758 49.9722C72.4451 49.7633 72.0163 49.8561 71.8135 50.1753Z" fill="#284C5B"/>
<path d="M78.385 46.9606V45.5445C79.6251 41.6621 80.3205 37.4082 80.3205 33.3633V14.1135L76.8667 14.8505C75.5222 15.1349 74.143 15.28 72.7638 15.28C68.0872 15.28 63.5497 13.6086 59.9857 10.5734L55.7321 6.95215L51.4786 10.5734C47.9146 13.6086 43.3771 15.28 38.7005 15.28C37.3271 15.28 35.9478 15.1349 34.5976 14.8505L31.1437 14.1135V33.3633C31.1437 37.414 31.8449 41.6621 33.0793 45.5445V46.9606H19.0842L24.2129 52.0965L19.1654 57.1513H33.3227C38.741 64.1269 46.9063 68.1312 55.7321 68.1312C64.558 68.1312 72.7232 64.1269 78.1416 57.1513H92.2641L87.2167 52.0965L92.3453 46.9606H78.385ZM78.2633 56.1589C78.2633 55.6366 78.2749 55.0795 78.2807 54.5107H80.3437C80.5176 54.5107 80.6567 54.3715 80.6567 54.1974C80.6567 54.0233 80.5176 53.884 80.3437 53.884H78.2865C78.2923 53.3733 78.3039 52.8568 78.3097 52.3345H81.0913C81.2651 52.3345 81.4042 52.1952 81.4042 52.0211C81.4042 51.847 81.2651 51.7077 81.0913 51.7077H78.3212C78.327 51.2028 78.3386 50.6921 78.3444 50.1872H80.309C80.4828 50.1872 80.6219 50.048 80.6219 49.8739C80.6219 49.6998 80.4828 49.5605 80.309 49.5605H78.3502C78.356 49.0033 78.3618 48.4636 78.3676 47.9471H89.9287L85.7911 52.0907L89.8476 56.1531H78.2517L78.2633 56.1589ZM77.2666 56.658C72.4856 62.7573 65.5142 66.4715 57.8705 67.0576C57.3258 67.0982 56.781 67.1215 56.2305 67.1331C56.0625 67.1331 55.8944 67.1389 55.7263 67.1389C55.5583 67.1389 55.3902 67.1389 55.2222 67.1331C54.6716 67.1215 54.1269 67.0982 53.5822 67.0576C45.9443 66.4715 38.9729 62.7573 34.1861 56.658C34.1861 56.2169 34.1861 55.7411 34.1745 55.2536L35.1597 56.304C35.2234 56.3678 35.3046 56.4026 35.3857 56.4026C35.461 56.4026 35.5364 56.3736 35.6001 56.3156C35.7276 56.1995 35.7334 56.0022 35.6117 55.8745L34.163 54.3308C34.1572 53.9014 34.1514 53.4661 34.1398 53.0251L36.1854 55.1433C36.2492 55.2071 36.3245 55.2362 36.4114 55.2362C36.4984 55.2362 36.5679 55.2071 36.6259 55.1491C36.7475 55.0272 36.7533 54.8299 36.6317 54.708L34.134 52.1198L34.1224 52.1081C34.1224 52.0211 34.1224 51.934 34.1224 51.847C34.1166 51.522 34.1108 51.1912 34.105 50.8604L34.1282 50.8894L35.1597 51.9805C35.2234 52.0443 35.3046 52.0791 35.3857 52.0791C35.461 52.0791 35.5364 52.0501 35.6001 51.9921C35.6755 51.9224 35.7044 51.8238 35.6928 51.7309C35.6871 51.6671 35.6581 51.6033 35.6117 51.551L35.5712 51.5046L34.1282 49.9725L34.0876 49.9319C34.076 49.3806 34.0702 48.835 34.0644 48.3127C34.0644 48.3127 34.0992 48.3476 34.1166 48.3708C34.5396 48.8757 34.9743 49.3632 35.4089 49.839C35.9015 50.3671 36.394 50.8778 36.904 51.3653C39.3379 53.6983 41.9689 55.5554 44.7389 56.9017C45.0924 57.07 45.4459 57.2325 45.8052 57.3892C48.9809 58.7646 52.3131 59.4842 55.7148 59.4842C59.1164 59.4842 62.4486 58.7646 65.6243 57.3892C65.9778 57.2325 66.3371 57.07 66.6906 56.9017C69.4606 55.5554 72.0916 53.6983 74.5255 51.3653C75.0355 50.8778 75.5338 50.3671 76.0206 49.839C76.4494 49.3806 76.8667 48.9047 77.2781 48.4114C77.3071 48.3766 77.3361 48.3418 77.3651 48.3069V48.3185C77.3651 48.8234 77.3535 49.3457 77.3419 49.8797L77.2723 49.9551L75.9337 51.3769L75.7656 51.5568C75.6961 51.6323 75.6671 51.7367 75.6845 51.8296C75.6961 51.8934 75.7251 51.9515 75.7772 51.9979C75.8352 52.0559 75.9163 52.0849 75.9916 52.0849C76.0728 52.0849 76.1539 52.0501 76.2176 51.9863L77.2666 50.872L77.3245 50.8082C77.3187 51.1564 77.3129 51.5046 77.3071 51.8528C77.3071 51.9224 77.3071 51.9921 77.3071 52.0617L77.2666 52.1081L74.7457 54.7139C74.624 54.8357 74.6298 55.033 74.7515 55.1549C74.8095 55.2129 74.8906 55.242 74.9659 55.242C75.0412 55.242 75.1282 55.2129 75.1919 55.1491L77.2608 53.0077L77.2897 52.9786C77.2839 53.4197 77.2723 53.855 77.2723 54.2844L77.255 54.3018L75.7656 55.8861C75.6497 56.008 75.6555 56.2053 75.7772 56.3272C75.8352 56.3852 75.9163 56.4142 75.9916 56.4142C76.0728 56.4142 76.1539 56.3794 76.2176 56.3156L77.255 55.2129C77.255 55.7178 77.2434 56.2111 77.2434 56.6696M25.5979 52.114L21.4602 47.9704H33.0561C33.0561 48.4869 33.0677 49.0266 33.0735 49.5837H31.0626C30.8888 49.5837 30.7497 49.723 30.7497 49.8971C30.7497 50.0712 30.8888 50.2104 31.0626 50.2104H33.0851C33.0909 50.7153 33.1025 51.226 33.1083 51.7309H30.2803C30.1064 51.7309 29.9673 51.8702 29.9673 52.0443C29.9673 52.2184 30.1064 52.3577 30.2803 52.3577H33.1198C33.1198 52.497 33.1198 52.6363 33.1256 52.7755V53.9014H31.0336C30.8598 53.9014 30.7207 54.0407 30.7207 54.2148C30.7207 54.3889 30.8598 54.5281 31.0336 54.5281H33.1314V56.1763H21.5355L25.5921 52.114H25.5979ZM32.3607 15.6688L34.3136 16.0866C35.745 16.3942 37.2112 16.5451 38.6715 16.5451C43.6437 16.5451 48.4651 14.7693 52.2551 11.5426L55.7032 8.60611L59.1512 11.5426C62.9412 14.7693 67.7627 16.5451 72.7348 16.5451C74.1952 16.5451 75.6613 16.3884 77.0927 16.0866L79.0456 15.6688V33.3807C79.0456 38.4644 77.9098 43.879 75.98 48.394C74.4849 50.106 72.8913 51.6091 71.2223 52.9032C71.1875 52.7581 71.1122 52.6304 70.9847 52.5318C70.6892 52.2938 70.2603 52.3461 70.0227 52.6421C69.7851 52.938 69.8373 53.3675 70.1328 53.6054C70.156 53.6286 70.185 53.6402 70.214 53.6576C65.7576 56.8263 60.8028 58.5093 55.7032 58.5093C50.6035 58.5093 45.6488 56.8263 41.1866 53.6576C41.2155 53.6402 41.2387 53.6228 41.2677 53.6054C41.5632 53.3675 41.6154 52.938 41.3778 52.6421C41.1402 52.3461 40.7114 52.2938 40.4158 52.5318C40.2941 52.6304 40.213 52.7639 40.1782 52.909C38.5092 51.6149 36.9214 50.1118 35.4263 48.3998C33.4965 43.8848 32.3607 38.4702 32.3607 33.3807V15.6514V15.6688Z" fill="#284C5B"/>
<path d="M72.8567 56.1296L72.7408 56.1934L71.1993 57.0581L70.9096 57.2206L70.4923 56.9131L69.1131 55.8975L69.5188 57.946L69.5477 58.0911L68.9161 58.5438L67.7339 59.3911L67.9715 59.4201L68.7886 59.5188L69.5999 59.6174L69.9476 59.658L70.6198 61.7879L71.5528 59.7625L73.7839 59.7799L72.1439 58.2652L72.8451 56.147L72.8567 56.1296ZM72.509 59.2576H71.2457L70.7183 60.4009L70.3359 59.1938L70.0751 59.1648L69.2812 59.0719L69.0841 59.0487L69.907 58.4567L70.1157 58.3059L70.1041 58.2536L69.9534 57.5108L69.8665 57.0639L70.1678 57.2845L70.672 57.6559L70.8864 57.8126L71.8542 57.2729L71.9932 57.1974L71.5934 58.3987L72.5206 59.2576H72.509Z" fill="#284C5B"/>
<path d="M66.5921 60.3198L64.419 60.8247L63.8047 60.0238L63.2078 59.2403L63.0629 59.0488L62.8717 61.2715L60.7681 62.0143L62.8195 62.8849V63.1866L62.8427 63.9004L62.8601 64.6085L62.8717 65.1191L63.7873 64.0629L64.3378 63.4304L64.6507 63.5232L66.4762 64.0687L65.717 62.8036L65.3925 62.2697L65.3288 62.1594L66.1922 60.9059L66.5921 60.3198ZM64.9811 62.5541L65.2998 63.088L65.3809 63.2273L65.1839 63.1692L64.4074 62.9371L64.164 62.8674L63.7293 63.3723L63.3353 63.825V63.6161L63.3121 62.8965V62.5599L62.1415 62.0666L63.3353 61.6429L63.4454 60.3836L64.2161 61.3876L65.4505 61.1032L64.9579 61.8228L64.7319 62.1478L64.9811 62.5599V62.5541Z" fill="#284C5B"/>
<path d="M56.5436 62.4144L55.7555 60.3252L54.9326 62.397L53.6229 62.4608L52.7073 62.5015L53.252 62.9541L54.4284 63.9291L53.9126 65.821L53.8431 66.0821L54.1097 65.9138L55.7265 64.8924L57.3259 65.9429L57.5925 66.117L57.523 65.85L57.0362 63.9523L58.2647 62.9657L58.7747 62.5537L57.8765 62.4957L56.5552 62.4086L56.5436 62.4144ZM56.4683 63.7666L56.7812 64.9969L55.7671 64.3295L55.7207 64.3005L55.6801 64.3295L54.6544 64.9795L54.9905 63.755L54.017 62.9483L55.2803 62.8903L55.7439 61.7122L56.1901 62.8961L57.4534 62.9773L56.4683 63.7666Z" fill="#284C5B"/>
<path d="M48.4364 59.0487L48.2626 59.2692L47.6715 60.0178L47.0572 60.7955L44.8956 60.2558L45.365 60.9638L46.13 62.1128L46.0488 62.2405L45.7185 62.7686L44.9478 64.0047L46.779 63.4882L47.0919 63.4012L47.5961 64.0047L48.5233 65.1074L48.5465 64.5619L48.5755 63.8597L48.6045 63.1516L48.6161 62.8731L50.6849 62.0374L48.5929 61.2597L48.4364 59.0312V59.0487ZM48.1293 62.5481L48.1177 62.8731L48.0887 63.5869L48.0771 63.8132L47.6715 63.3315L47.26 62.8441L47.0166 62.9137L46.2285 63.1342L46.0488 63.1865L46.1242 63.0646L46.4545 62.5365L46.7153 62.1128L46.5298 61.8285L46.0199 61.0566L47.2484 61.3642L48.0365 60.3718L48.1235 61.637L49.3115 62.078L48.1409 62.5539L48.1293 62.5481Z" fill="#284C5B"/>
<path d="M41.94 58.0912L41.9689 57.9636L42.4152 55.9092L40.9896 56.9248L40.5955 57.2033L40.1899 56.9712L38.6658 56.0833L38.6889 56.1471L39.338 58.2131L37.6748 59.6988L39.9059 59.722L40.8041 61.7648L41.5169 59.6465L41.8704 59.6117L42.6933 59.5305L43.5278 59.4492L43.7306 59.426L42.5774 58.5671L41.94 58.0912ZM41.401 59.1533L41.146 59.1823L40.7404 60.3836L40.2304 59.2229L38.9671 59.2113L39.9117 58.3698L39.535 57.1627L40.6245 57.8011L40.8157 57.6618L41.3257 57.2962L41.6502 57.0641L41.5459 57.5341L41.3894 58.2653V58.3002L41.5285 58.4104L42.3978 59.0546L42.2065 59.072L41.3952 59.1533H41.401Z" fill="#284C5B"/>
<path d="M21.1011 45.5558H30.0197L28.9823 42.8224C28.5883 41.7778 27.4351 41.0814 26.1196 41.0814C25.5343 41.0814 25.1808 40.7854 25.0533 40.5359C24.978 40.3908 24.9316 40.1645 25.1228 39.9091L25.9284 38.8239C26.7628 37.7038 27.0874 36.3691 26.8498 35.0691C26.589 33.6415 25.6734 32.3647 24.2884 31.4826L20.6491 29.0626V27.0721L24.2014 28.1225H24.2304C24.5955 28.2153 24.9606 28.256 25.3199 28.256C26.4035 28.256 27.464 27.8903 28.3333 27.1939C29.4923 26.2654 30.1587 24.8842 30.1587 23.3985V23.0271L23.1235 20.9437C23.8189 20.5491 24.5723 20.2183 25.3778 19.9687C27.8465 19.1969 29.4981 16.9278 29.4981 14.3221V13.8346L29.0171 13.823C24.7578 13.7011 20.9098 15.5234 20.4984 15.7265C20.284 15.8019 20.0753 15.9006 19.8725 16.0283C19.5132 15.21 19.0322 14.4497 18.4353 13.7591L18.5513 13.3239C18.8294 12.2851 19.774 11.5597 20.8461 11.5597H21.3619C23.8827 11.5597 25.9341 9.50528 25.9341 6.98081C25.9341 6.13932 25.2503 5.46033 24.4158 5.46033H22.0573L20.5737 3.97467C19.3046 2.70373 17.624 1.99572 15.8334 1.9667L14.5816 0.713174C13.8804 0.0109669 12.8721 -0.192151 11.9507 0.190871C11.0293 0.573894 10.4614 1.42699 10.4614 2.42517V3.74253L8.61274 6.82412C5.9644 11.2347 4.56779 16.2894 4.56779 21.437V26.4975C4.56779 35.2838 3.20595 41.5979 0.157757 46.966L0.0186768 47.2098L3.88397 54.2318C4.81118 55.9206 6.59027 56.971 8.51422 56.971H15.1727L14.3614 54.2899C13.8746 52.6997 12.4317 51.6261 10.7743 51.6261C10.2643 51.6261 9.81811 51.3534 9.58631 50.9007C9.3545 50.448 9.38928 49.9373 9.67323 49.5195L17.0909 40.031C18.2673 41.0002 18.9975 42.3117 18.9975 43.7568C18.9975 44.7433 19.9479 45.55 21.1127 45.55M16.2796 39.4565L8.88511 48.9101L8.87351 48.9276C8.36934 49.6414 8.3056 50.5699 8.70546 51.3534C9.10532 52.131 9.90503 52.6185 10.7801 52.6185C12.0028 52.6185 13.0633 53.402 13.4168 54.5742L13.5675 55.0791C13.1503 54.7832 12.6113 54.4872 11.9449 54.2783C11.7826 54.226 11.6088 54.3189 11.5566 54.4814C11.5045 54.6439 11.5972 54.818 11.7595 54.8702C12.6403 55.1488 13.2662 55.5898 13.666 55.9612H8.52002C6.95535 55.9612 5.51818 55.1081 4.76482 53.7385L1.17189 47.204C4.21429 41.7256 5.57613 35.3187 5.57613 26.4859V21.4254C5.57613 16.4577 6.92638 11.5829 9.482 7.32901L11.4697 4.01529V2.41936C11.4697 1.71716 11.9217 1.2819 12.3448 1.1078C12.7678 0.933702 13.3995 0.922096 13.892 1.41538L15.4335 2.95908H15.7464C17.3111 2.95908 18.7773 3.56843 19.8841 4.67687L21.6632 6.45851H24.439C24.7288 6.45851 24.9606 6.69064 24.9606 6.98081C24.9606 8.95396 23.3553 10.5615 21.385 10.5615H20.8693C19.3452 10.5615 18.0065 11.5945 17.6125 13.0685L17.3575 14.0319L17.5429 14.235C18.2209 14.9662 18.7425 15.8077 19.1076 16.7189C19.1771 16.8988 19.2409 17.0787 19.2988 17.2644C19.3626 17.4675 19.4205 17.6764 19.4727 17.8911C19.606 18.4773 19.6755 19.0808 19.6755 19.696V19.9223L18.7425 19.6438L18.2673 19.5045L17.7921 19.3652L17.0271 19.1389H17.0098C15.3929 18.7152 14.2571 17.247 14.2571 15.5756H13.2604C13.2604 16.0805 13.3415 16.5738 13.4922 17.038C13.979 18.5121 15.1785 19.6902 16.7432 20.1022L17.5951 20.3518L18.0761 20.4969L18.5628 20.6419L19.6697 20.9727L20.1681 21.1178L20.6664 21.2629L20.8925 21.3325L21.4662 21.5008L22.0573 21.6749L29.1736 23.7816C29.1446 24.1007 29.0751 24.4141 28.9708 24.7101L26.1775 23.9383C26.0095 23.8918 25.8414 23.9905 25.7951 24.153C25.7487 24.3213 25.8472 24.4896 26.0153 24.536L28.7158 25.2846C28.5767 25.54 28.4028 25.7779 28.2058 25.9984L25.5575 25.2672C25.3894 25.2208 25.2214 25.3195 25.175 25.4819C25.1286 25.6502 25.2272 25.8185 25.3952 25.865L27.6669 26.4917C26.757 27.1765 25.6096 27.4319 24.497 27.1765L20.678 26.0449L20.1797 25.8998L19.6813 25.7547L12.3795 23.5959L12.2404 24.0717L12.1941 24.2226C12.1535 24.2807 12.1303 24.3503 12.1361 24.4199L12.0956 24.5534L12.1767 24.5766L13.0633 26.7587C13.1097 26.8806 13.2314 26.9502 13.3531 26.9502C13.3937 26.9502 13.4342 26.9444 13.469 26.927C13.6255 26.8631 13.7066 26.6832 13.637 26.5208L12.9358 24.7971L14.4368 25.2382L15.2539 27.252C15.3002 27.3738 15.4219 27.4435 15.5436 27.4435C15.5842 27.4435 15.6247 27.4377 15.6595 27.4203C15.816 27.3564 15.8971 27.1707 15.8334 27.014L15.2017 25.4645L19.6813 26.7877V30.3858C19.6813 33.3687 18.6961 36.2994 16.9055 38.6788C16.8591 38.7426 16.8069 38.8123 16.7606 38.8703L16.6041 39.0676L16.297 39.4623L16.2796 39.4565ZM20.9272 16.626C20.962 16.6086 24.5259 14.8444 28.5013 14.8096C28.4898 14.9372 28.4724 15.0649 28.4492 15.1868C27.9624 15.1868 27.041 15.268 25.9168 15.7671C25.7603 15.8368 25.6908 16.0225 25.7603 16.1791C25.8124 16.2952 25.9284 16.3649 26.0443 16.3649C26.0848 16.3649 26.1312 16.3591 26.1717 16.3358C27.0816 15.9296 27.8465 15.8309 28.2985 15.8135C28.229 16.0399 28.1421 16.2604 28.0378 16.4751C27.522 16.4983 26.6933 16.6144 25.7139 17.0497C25.5575 17.1193 25.4879 17.305 25.5575 17.4617C25.6096 17.5778 25.7255 17.6474 25.8414 17.6474C25.882 17.6474 25.9283 17.6416 25.9689 17.6184C26.6295 17.3224 27.2149 17.1889 27.6553 17.1309C27.0526 18.0014 26.1717 18.6688 25.1055 19.0054C23.9233 19.3768 22.8454 19.8933 21.8718 20.5549L20.6664 20.2009V19.6844C20.6664 18.7558 20.5274 17.8505 20.255 16.9858C20.4462 16.8407 20.6491 16.7247 20.8635 16.655L20.9272 16.626ZM19.1829 36.8043L20.9852 38.0056C21.0373 38.0404 21.1011 38.0578 21.159 38.0578C21.2575 38.0578 21.3561 38.0114 21.4198 37.9186C21.5125 37.7735 21.4777 37.582 21.3329 37.4891L19.4495 36.2298C19.548 36.0035 19.6349 35.7713 19.7218 35.545L21.5936 36.7927C21.6458 36.8275 21.7096 36.8449 21.7675 36.8449C21.866 36.8449 21.9645 36.7985 22.0283 36.7057C22.121 36.5606 22.0862 36.3691 21.9414 36.2762L19.9363 34.9356C20.0232 34.6687 20.1043 34.4017 20.1739 34.129L22.092 35.4115C22.1442 35.4463 22.2079 35.4637 22.2659 35.4637C22.3644 35.4637 22.4629 35.4173 22.5267 35.3245C22.6194 35.1794 22.5846 34.9879 22.4397 34.895L20.3303 33.4848C20.3883 33.2236 20.4346 32.9567 20.481 32.6955L22.318 33.92C22.3702 33.9549 22.4339 33.9723 22.4919 33.9723C22.5904 33.9723 22.6889 33.9258 22.7527 33.833C22.8512 33.6879 22.8106 33.4964 22.6657 33.4035L20.5795 32.0107C20.6375 31.471 20.6722 30.9197 20.6722 30.3742V30.2581L23.7668 32.3183C24.9258 33.0553 25.6792 34.0941 25.8878 35.249C26.079 36.2878 25.824 37.315 25.146 38.2261L24.3405 39.3114C23.9696 39.8105 23.9059 40.4372 24.184 40.9827C24.5144 41.6501 25.2851 42.0796 26.137 42.0796C26.9888 42.0796 27.8233 42.5322 28.0667 43.1822L28.2753 43.7277C27.5162 43.217 26.4499 42.7238 25.1402 42.7238C24.9664 42.7238 24.8273 42.863 24.8273 43.0371C24.8273 43.2112 24.9664 43.3505 25.1402 43.3505C26.5542 43.3505 27.6727 44.0179 28.3507 44.5634H21.1243C20.5158 44.5634 20.0058 44.1978 20.0058 43.7684C20.0058 42.0099 19.1308 40.414 17.711 39.2591C18.2847 38.4931 18.783 37.6806 19.1945 36.8217" fill="#284C5B"/>
<path d="M17.6531 5.988C17.6705 6.02862 17.6937 6.06924 17.7169 6.10406C17.74 6.13888 17.769 6.1737 17.8038 6.20852C17.8328 6.23754 17.8675 6.26656 17.9081 6.29558C17.9429 6.31879 17.9834 6.342 18.024 6.35941C18.0646 6.37682 18.1109 6.38843 18.1515 6.40004C18.1978 6.40584 18.2384 6.41164 18.2848 6.41164C18.4644 6.41164 18.6441 6.3362 18.7716 6.20852C18.8005 6.1737 18.8295 6.13888 18.8585 6.10406C18.8817 6.06344 18.9048 6.02862 18.9222 5.988C18.9396 5.94737 18.9512 5.90095 18.9628 5.86032C18.9686 5.8139 18.9744 5.77327 18.9744 5.72685C18.9744 5.54694 18.899 5.36704 18.7716 5.24517C18.6093 5.08847 18.3775 5.01303 18.1515 5.05946C18.1109 5.06526 18.0646 5.08267 18.024 5.10008C17.9834 5.11749 17.9429 5.14071 17.9081 5.16392C17.8675 5.18713 17.8328 5.21615 17.8038 5.25097C17.6763 5.37864 17.601 5.55274 17.601 5.73265C17.601 5.77908 17.601 5.8197 17.6125 5.86613C17.6183 5.90675 17.6357 5.95318 17.6531 5.9938" fill="#284C5B"/>
<path d="M12.5419 4.64811C12.5419 4.64811 12.5998 4.64811 12.6288 4.6365C12.791 4.59007 12.8896 4.41597 12.8432 4.25348C12.3332 2.50086 12.8142 2.12364 12.82 2.11784C12.8084 2.12364 12.8026 2.12944 12.8026 2.12944L12.5071 1.57812C12.4607 1.60714 12.2057 1.75803 12.0725 2.2223C11.9218 2.75621 11.9739 3.49904 12.2463 4.42758C12.2869 4.56106 12.4086 4.65391 12.5476 4.65391" fill="#284C5B"/>
<path d="M8.14918 14.5713C7.98112 14.5306 7.81307 14.6351 7.7725 14.8034C7.25095 16.9739 6.98438 19.2024 6.98438 21.4367C6.98438 21.6108 7.12345 21.75 7.2973 21.75C7.47116 21.75 7.61024 21.6108 7.61024 21.4367C7.61024 19.2546 7.87102 17.0725 8.38098 14.9485C8.42155 14.7802 8.31723 14.6119 8.15497 14.5713" fill="#284C5B"/>
<path d="M5.385 42.0395C5.22274 41.9815 5.04309 42.0685 4.98514 42.231C4.38825 43.9314 3.65228 45.5563 2.79461 47.0594C2.74245 47.1523 2.74245 47.2683 2.79461 47.3612L4.66062 50.7562C4.71857 50.8606 4.82288 50.9186 4.93298 50.9186C4.98514 50.9186 5.03729 50.907 5.08365 50.878C5.23432 50.7968 5.28648 50.6053 5.20535 50.4544L3.42048 47.2161C4.26076 45.7188 4.97934 44.1113 5.57044 42.4399C5.62839 42.2774 5.54146 42.0975 5.3792 42.0453" fill="#284C5B"/>
<path d="M110.976 46.966C107.928 41.5921 106.566 35.278 106.566 26.4975V21.437C106.566 16.2894 105.164 11.2347 102.522 6.82412L100.673 3.74253V2.42517C100.673 1.42699 100.105 0.573894 99.1836 0.190871C98.2622 -0.192151 97.2538 0.0109669 96.5526 0.713174L95.3009 1.9667C93.5102 1.98992 91.8297 2.70373 90.5605 3.97467L89.077 5.46033H86.7126C85.8781 5.46033 85.1943 6.14513 85.1943 6.98081C85.1943 9.50528 87.2458 11.5597 89.7666 11.5597H90.2824C91.3545 11.5597 92.299 12.2851 92.5772 13.3239L92.6931 13.7591C92.0962 14.4439 91.6152 15.21 91.2559 16.0283C91.0531 15.9006 90.8445 15.8019 90.6301 15.7265C90.2186 15.5234 86.3707 13.7069 82.1114 13.823L81.6304 13.8346V14.3221C81.6304 16.9278 83.2877 19.1969 85.7506 19.9687C86.5562 20.2183 87.3037 20.5491 88.0049 20.9437L80.9697 23.0271V23.3985C80.9697 24.8842 81.6362 26.2712 82.7952 27.1939C83.6644 27.8903 84.7249 28.256 85.8086 28.256C86.1737 28.256 86.5388 28.2153 86.8981 28.1341L90.4852 27.0721V29.0626L86.8575 31.4768C85.4667 32.3647 84.5511 33.6357 84.2903 35.0691C84.0527 36.3691 84.3772 37.698 85.2117 38.8239L86.0172 39.9091C86.2084 40.1645 86.1563 40.3908 86.0868 40.5359C85.9593 40.7854 85.6058 41.0814 85.0205 41.0814C83.705 41.0814 82.5576 41.7836 82.1577 42.8224L81.1204 45.55H90.039C91.2038 45.55 92.1542 44.7491 92.1542 43.7568C92.1542 42.3117 92.8786 41.0002 94.0607 40.031L101.478 49.5195C101.768 49.9373 101.803 50.448 101.571 50.9007C101.334 51.3534 100.893 51.6261 100.383 51.6261C98.72 51.6261 97.277 52.6939 96.796 54.2899L95.9847 56.971H102.643C104.567 56.971 106.346 55.9206 107.273 54.2318L111.139 47.2098L111 46.966H110.976ZM97.474 55.9728C97.8739 55.6014 98.4997 55.1546 99.3806 54.8818C99.5429 54.8296 99.6356 54.6555 99.5834 54.493C99.5313 54.3305 99.3574 54.2376 99.1952 54.2899C98.5287 54.4988 97.9898 54.789 97.5725 55.0907L97.729 54.5858C98.0825 53.4136 99.143 52.6301 100.366 52.6301C101.241 52.6301 102.035 52.1484 102.44 51.365C102.846 50.5873 102.777 49.6588 102.272 48.9392L94.8605 39.4623L94.5533 39.0676L94.3969 38.8703C94.3447 38.8065 94.2984 38.7426 94.252 38.6788C92.4613 36.2994 91.4762 33.3687 91.4762 30.3858V26.7877L95.9557 25.4645L95.3241 27.014C95.2603 27.1707 95.3357 27.3564 95.4921 27.4203C95.5327 27.4377 95.5733 27.4435 95.608 27.4435C95.7297 27.4435 95.8456 27.368 95.8978 27.252L96.7149 25.2382L98.2158 24.7971L97.5146 26.5208C97.4508 26.6774 97.5262 26.8631 97.6884 26.927C97.729 26.9444 97.7638 26.9502 97.8043 26.9502C97.926 26.9502 98.0419 26.8748 98.0941 26.7587L98.9807 24.5766L99.0619 24.5534L99.0213 24.4257C99.0213 24.3561 99.0039 24.2865 98.9634 24.2284L98.917 24.0775L98.7779 23.6017L91.4762 25.7605L90.9778 25.9056L90.4794 26.0507L86.6605 27.1823C85.5478 27.4319 84.4004 27.1823 83.4906 26.4975L85.7622 25.8708C85.9303 25.8243 86.023 25.656 85.9824 25.4877C85.9361 25.3195 85.7622 25.2266 85.6 25.2672L82.9516 25.9984C82.7546 25.7779 82.5865 25.54 82.4417 25.2904L85.1422 24.5418C85.3044 24.4954 85.4029 24.3213 85.3566 24.1588C85.3102 23.9905 85.1422 23.8976 84.9741 23.9441L82.1751 24.7159C82.0708 24.4199 82.0012 24.1066 81.9723 23.7874L89.0886 21.6807L89.6739 21.5066L90.2476 21.3383L90.4736 21.2745L90.972 21.1294L91.4704 20.9843L92.5772 20.6593L93.064 20.5143L93.545 20.375L94.3969 20.1254C95.9615 19.7134 97.1669 18.5411 97.6479 17.0613C97.7986 16.597 97.8797 16.1095 97.8797 15.5988H96.8829C96.8829 17.276 95.7529 18.7384 94.1303 19.1621L93.3537 19.3942L92.8786 19.5335L92.4034 19.6728L91.4704 19.9513V19.725C91.4704 19.1157 91.5399 18.5063 91.6732 17.926C91.7195 17.717 91.7775 17.5081 91.8412 17.2992C91.8992 17.1135 91.9629 16.9336 92.0383 16.7537C92.3976 15.8426 92.9249 15.0011 93.6029 14.2698L93.7884 14.0667L93.5334 13.1034C93.1393 11.6293 91.8007 10.5963 90.2766 10.5963H89.7608C87.7905 10.5963 86.1853 8.98878 86.1853 7.01563C86.1853 6.72546 86.4171 6.49333 86.7068 6.49333H89.4827L91.2617 4.71169C92.3686 3.60325 93.8347 2.9939 95.3994 2.9939H95.7123L97.2538 1.4502C97.7464 0.956916 98.3781 0.968523 98.8011 1.14262C99.2241 1.31672 99.6761 1.75778 99.6761 2.45418V4.05011L101.664 7.36964C104.219 11.6235 105.57 16.4983 105.57 21.466V26.5266C105.57 35.3651 106.932 41.772 109.974 47.2446L106.381 53.7792C105.628 55.1488 104.185 56.0019 102.626 56.0019H97.4798L97.474 55.9728ZM90.0274 44.5576H82.801C83.479 44.0121 84.5974 43.3447 86.0114 43.3447C86.1853 43.3447 86.3244 43.2054 86.3244 43.0313C86.3244 42.8572 86.1853 42.718 86.0114 42.718C84.7017 42.718 83.6297 43.2112 82.8763 43.7219L83.0849 43.1764C83.3341 42.5264 84.128 42.0738 85.0147 42.0738C85.9013 42.0738 86.6373 41.6443 86.9676 40.9769C87.24 40.4314 87.182 39.8105 86.8053 39.3056L85.9998 38.2203C85.3218 37.3092 85.0668 36.282 85.2581 35.2432C85.4725 34.0883 86.2258 33.0495 87.3906 32.3067L90.4794 30.2523V30.3684C90.4794 30.9139 90.5142 31.4652 90.5721 32.0049L88.4859 33.3977C88.341 33.4964 88.3063 33.6879 88.399 33.8272C88.4569 33.9142 88.5554 33.9665 88.6598 33.9665C88.7177 33.9665 88.7814 33.9491 88.8336 33.9142L90.6706 32.6897C90.7112 32.9567 90.7634 33.2178 90.8213 33.479L88.7119 34.8892C88.567 34.9879 88.5323 35.1794 88.625 35.3187C88.6829 35.4057 88.7815 35.4579 88.8858 35.4579C88.9437 35.4579 89.0075 35.4405 89.0596 35.4057L90.9778 34.1232C91.0473 34.3959 91.1284 34.6629 91.2154 34.9298L89.2103 36.2704C89.0654 36.3633 89.0306 36.5606 89.1234 36.6999C89.1813 36.7869 89.2798 36.8391 89.3841 36.8391C89.4421 36.8391 89.5058 36.8217 89.558 36.7869L91.4298 35.5392C91.5167 35.7713 91.6094 36.0035 91.7022 36.2298L89.8188 37.4891C89.6739 37.582 89.6391 37.7793 89.7318 37.9186C89.7898 38.0056 89.8883 38.0578 89.9926 38.0578C90.0506 38.0578 90.1143 38.0404 90.1665 38.0056L91.9687 36.8043C92.3802 37.6632 92.8786 38.4757 93.4523 39.2417C92.0383 40.3966 91.1574 41.9925 91.1574 43.7509C91.1574 44.1804 90.6475 44.546 90.039 44.546M85.4435 17.0497C84.4641 16.6086 83.6412 16.4925 83.1197 16.4693C83.0154 16.2546 82.9285 16.0341 82.8589 15.8077C83.3109 15.8251 84.0759 15.9238 84.9799 16.33C85.0205 16.3474 85.0668 16.3591 85.1074 16.3591C85.2291 16.3591 85.3392 16.2894 85.3914 16.1733C85.4609 16.0167 85.3914 15.8309 85.2349 15.7613C84.1164 15.2564 83.1892 15.1752 82.7024 15.181C82.6793 15.0533 82.6619 14.9314 82.6503 14.8038C86.6083 14.8444 90.1723 16.597 90.2244 16.6202L90.2882 16.6492C90.5026 16.7189 90.7054 16.8349 90.8967 16.98C90.6243 17.8447 90.4852 18.7558 90.4852 19.6786V20.1951L89.2798 20.5491C88.3121 19.8875 87.2284 19.371 86.0462 18.9996C84.9799 18.6688 84.0991 17.9956 83.4964 17.1251C83.9368 17.1831 84.5221 17.3166 85.1827 17.6126C85.2233 17.63 85.2697 17.6416 85.3102 17.6416C85.4319 17.6416 85.542 17.572 85.5942 17.4559C85.6637 17.2992 85.5942 17.1135 85.4377 17.0439" fill="#284C5B"/>
<path d="M93.226 5.1522C93.1913 5.12899 93.1507 5.10577 93.1101 5.08836C93.0696 5.07095 93.0232 5.05935 92.9826 5.04774C92.7624 5.00131 92.5248 5.07676 92.3626 5.23345C92.2351 5.36112 92.1655 5.53522 92.1655 5.71513C92.1655 5.76155 92.1655 5.80218 92.1771 5.8486C92.1829 5.88923 92.2003 5.93565 92.2177 5.97628C92.2351 6.0169 92.2583 6.05753 92.2814 6.09235C92.3046 6.12717 92.3336 6.16199 92.3684 6.19681C92.4958 6.32448 92.6697 6.39992 92.8551 6.39992C92.9015 6.39992 92.9479 6.39992 92.9884 6.38832C93.0348 6.38251 93.0753 6.3651 93.1159 6.34769C93.1565 6.33028 93.1971 6.30707 93.2318 6.28386C93.2724 6.26064 93.3072 6.23163 93.3361 6.19681C93.3651 6.16199 93.3941 6.12717 93.4231 6.09235C93.4462 6.05172 93.4694 6.0169 93.4868 5.97628C93.5042 5.93565 93.5158 5.88923 93.5274 5.8486C93.539 5.80218 93.539 5.76155 93.539 5.71513C93.539 5.53522 93.4636 5.35532 93.3361 5.23345C93.3072 5.20443 93.2724 5.17541 93.2318 5.1464" fill="#284C5B"/>
<path d="M98.6214 1.57807L98.3259 2.12939C98.3259 2.12939 98.3201 2.12939 98.3085 2.11778C98.3085 2.11778 98.7895 2.5008 98.2853 4.25342C98.239 4.41592 98.3317 4.59002 98.4998 4.63644C98.5287 4.64225 98.5577 4.64805 98.5867 4.64805C98.72 4.64805 98.8475 4.561 98.888 4.42172C99.1546 3.49318 99.2125 2.75035 99.0619 2.21644C98.9286 1.75797 98.6794 1.60128 98.6272 1.57227" fill="#284C5B"/>
<path d="M102.98 14.5714C102.812 14.612 102.707 14.7803 102.748 14.9486C103.264 17.0669 103.519 19.2547 103.519 21.4368C103.519 21.6109 103.658 21.7502 103.831 21.7502C104.005 21.7502 104.144 21.6109 104.144 21.4368C104.144 19.2025 103.878 16.974 103.356 14.8035C103.316 14.6353 103.148 14.5366 102.98 14.5714Z" fill="#284C5B"/>
<path d="M105.923 50.4544C105.842 50.6053 105.894 50.7968 106.045 50.878C106.091 50.907 106.143 50.9186 106.195 50.9186C106.306 50.9186 106.41 50.8606 106.468 50.7562L108.334 47.3612C108.386 47.2683 108.386 47.1523 108.334 47.0594C107.476 45.5505 106.74 43.9314 106.143 42.231C106.085 42.0685 105.906 41.9815 105.749 42.0395C105.587 42.0975 105.5 42.2716 105.558 42.4341C106.149 44.1113 106.873 45.7188 107.708 47.2103L105.923 50.4486V50.4544Z" fill="#284C5B"/>
</svg>
