<svg width="265" height="266" viewBox="0 0 265 266" fill="none" xmlns="http://www.w3.org/2000/svg">
<path d="M60.0709 22.8285C59.8309 22.6385 59.5509 22.5885 59.2209 22.6485C58.8909 22.7185 58.4409 22.9185 57.8709 23.2585C57.8409 23.2785 57.7909 23.2385 57.7309 23.1385C57.6709 23.0385 57.6609 22.9685 57.6909 22.9485L59.0709 22.1685C59.8509 21.7585 60.4609 21.4185 60.9109 21.1485C61.4309 20.8485 62.0509 20.4485 62.7909 19.9685L64.0709 19.1785C64.1209 19.1485 64.1809 19.1785 64.2409 19.2885C64.3009 19.3985 64.3109 19.4585 64.2509 19.4885C63.6809 19.8285 63.2909 20.1185 63.0909 20.3785C62.8809 20.6385 62.8009 20.9285 62.8509 21.2385C62.8909 21.5485 63.0709 21.9585 63.3709 22.4785L70.4009 34.3885C70.7109 34.9185 70.9909 35.2785 71.2309 35.4685C71.4709 35.6585 71.7409 35.7085 72.0609 35.6385C72.3809 35.5685 72.8309 35.3585 73.4209 35.0085C73.4909 34.9685 73.5509 35.0085 73.6109 35.0985C73.6709 35.1985 73.6709 35.2685 73.6009 35.3185C73.0509 35.6485 72.6009 35.8985 72.2709 36.0685L70.3709 37.1585L68.5509 38.2685C68.2309 38.4785 67.7809 38.7585 67.2009 39.0985C67.1709 39.1185 67.1209 39.0785 67.0609 38.9785C67.0009 38.8785 66.9909 38.8085 67.0209 38.7885C67.6109 38.4385 68.0109 38.1485 68.2209 37.9085C68.4409 37.6685 68.5209 37.3885 68.4809 37.0785C68.4409 36.7685 68.2609 36.3585 67.9609 35.8385L60.9009 23.8785C60.6009 23.3585 60.3209 23.0085 60.0909 22.8285H60.0709ZM68.6509 17.9785C68.5109 17.7385 68.2609 17.6185 67.9109 17.6385C67.5609 17.6485 67.1209 17.8085 66.6109 18.1085C66.5709 18.1285 66.5309 18.0885 66.4709 17.9885C66.4109 17.8885 66.4009 17.8185 66.4309 17.7985L67.6109 17.1385C68.3909 16.7285 69.0909 16.3385 69.7109 15.9685C70.3809 15.5685 71.0509 15.1485 71.7209 14.7085L72.8209 14.0285C72.8709 13.9985 72.9309 14.0285 72.9909 14.1385C73.0509 14.2485 73.0609 14.3085 73.0009 14.3385C72.2409 14.7885 71.5309 15.4785 70.8709 16.4185C70.2009 17.3585 69.7109 18.4085 69.4009 19.5685L66.7209 30.1385L65.9909 30.4985L68.6609 19.7985C68.8909 18.9685 68.8909 18.3585 68.6609 17.9785H68.6509ZM67.0409 27.5285L67.8709 24.8085L74.7809 27.6585C76.9009 28.5685 78.4509 29.1785 79.4509 29.4885C80.4409 29.7985 81.1609 29.9285 81.6009 29.8785C82.0409 29.8285 82.5509 29.6285 83.1309 29.2885C83.1809 29.2585 83.2409 29.2885 83.3009 29.3985C83.3609 29.4985 83.3709 29.5685 83.3109 29.5985L80.4209 31.3085L79.4309 31.9285C79.1909 32.0685 78.9509 32.1385 78.7209 32.1385C78.4909 32.1385 78.1809 32.0685 77.7909 31.9185C77.4009 31.7785 76.6709 31.4785 75.5909 31.0185L73.6909 30.2185L67.0509 27.5185L67.0409 27.5285Z" fill="white"/>
<path d="M102.531 22.1884C102.571 22.2984 102.561 22.3684 102.481 22.3984C102.121 22.5284 101.551 22.7284 100.751 22.9884C99.951 23.2484 99.371 23.4384 99.021 23.5784C98.551 23.7584 98.011 23.9784 97.381 24.2584C96.761 24.5384 96.271 24.7384 95.911 24.8784C95.831 24.9084 95.781 24.8684 95.731 24.7484C95.691 24.6384 95.701 24.5684 95.781 24.5384C96.341 24.3284 96.721 24.1184 96.921 23.8984C97.121 23.6884 97.161 23.4384 97.061 23.1584C96.951 22.8784 96.621 22.4584 96.041 21.9084L85.691 12.1784L86.131 9.86836L85.281 24.4784C85.251 25.1284 85.321 25.6784 85.481 26.1284C85.731 26.7884 86.151 27.1884 86.741 27.3484C87.331 27.5084 88.051 27.4284 88.901 27.1184C88.991 27.0784 89.061 27.1184 89.101 27.2384C89.141 27.3484 89.121 27.4284 89.021 27.4584C88.681 27.5884 88.191 27.7484 87.541 27.9484C86.811 28.1784 86.191 28.3884 85.671 28.5884C85.161 28.7784 84.581 29.0184 83.921 29.3084C83.331 29.5684 82.851 29.7784 82.451 29.9284C82.361 29.9684 82.291 29.9284 82.251 29.8084C82.211 29.6984 82.231 29.6184 82.331 29.5884C82.851 29.3884 83.261 29.1284 83.531 28.7884C83.801 28.4484 84.021 27.9484 84.151 27.2884C84.291 26.6284 84.391 25.6884 84.471 24.4584L85.401 8.59836C85.421 8.52836 85.491 8.46836 85.621 8.41836C85.751 8.36836 85.841 8.36836 85.881 8.41836L97.971 19.7084C99.111 20.8184 100.001 21.5384 100.621 21.8684C101.251 22.1984 101.821 22.2684 102.351 22.0684C102.421 22.0384 102.481 22.0784 102.531 22.1984V22.1884ZM85.061 20.2984L92.921 17.3384L93.381 17.9684L84.961 21.1384L85.061 20.2984Z" fill="white"/>
<path d="M126.111 18.2788C126.131 18.3988 126.111 18.4588 126.081 18.4688C125.431 18.5688 124.901 18.6488 124.511 18.6888L122.371 18.9988L120.301 19.3588C119.951 19.4388 119.451 19.5288 118.791 19.6288C118.751 19.6288 118.721 19.5788 118.701 19.4588C118.681 19.3388 118.701 19.2788 118.731 19.2688C119.381 19.1688 119.861 19.0288 120.151 18.8688C120.441 18.7088 120.621 18.4788 120.681 18.1888C120.731 17.8988 120.691 17.4588 120.561 16.8688L117.751 3.43879L118.721 1.18879L114.011 20.1788C113.981 20.2688 113.911 20.3188 113.791 20.3388C113.691 20.3588 113.601 20.3388 113.501 20.2588L102.921 5.70879C102.451 5.03879 101.961 4.56879 101.451 4.30879C100.941 4.04879 100.391 3.95879 99.8008 4.05879C99.7408 4.05879 99.7008 4.01879 99.6808 3.89879C99.6608 3.77879 99.6808 3.71879 99.7408 3.70879L101.021 3.52879C101.281 3.50879 101.621 3.45879 102.031 3.39879L103.391 3.14879C103.561 3.09879 103.771 3.05879 104.011 3.01879C104.271 2.97879 104.491 3.03879 104.681 3.19879C104.871 3.35879 105.181 3.73879 105.621 4.33879L114.391 16.3288L113.481 18.7888L117.911 1.54879C117.981 1.24879 118.081 1.03879 118.201 0.908789C118.321 0.778789 118.481 0.698789 118.681 0.668789C118.821 0.648789 119.001 0.628789 119.221 0.608789C119.441 0.588789 119.711 0.558789 120.021 0.508789L121.611 0.218789C121.861 0.158789 122.241 0.0887891 122.731 0.00878906C122.791 0.00878906 122.831 0.0487891 122.851 0.168789C122.871 0.288789 122.851 0.348789 122.791 0.358789C121.861 0.508789 121.211 0.788789 120.841 1.20879C120.471 1.62879 120.371 2.21879 120.541 3.00879L123.381 16.4388C123.521 17.0488 123.671 17.4788 123.831 17.7288C123.991 17.9788 124.231 18.1388 124.541 18.1888C124.851 18.2388 125.341 18.2088 126.021 18.0988C126.061 18.0988 126.091 18.1488 126.111 18.2688V18.2788ZM102.531 3.97879L103.341 3.90879L105.301 18.1488C105.451 19.1988 105.781 19.9688 106.291 20.4488C106.801 20.9288 107.481 21.1088 108.331 20.9688C108.391 20.9688 108.431 21.0088 108.451 21.1288C108.471 21.2488 108.451 21.3088 108.391 21.3188C107.861 21.4088 107.441 21.4588 107.141 21.4888L105.511 21.7188L103.771 22.0288C103.481 22.0988 103.061 22.1688 102.531 22.2588C102.471 22.2588 102.431 22.2188 102.411 22.0988C102.391 21.9788 102.411 21.9188 102.471 21.9088C103.281 21.7788 103.861 21.3988 104.221 20.7788C104.571 20.1588 104.681 19.3188 104.531 18.2688L102.531 3.97879Z" fill="white"/>
<path d="M144.591 1.09856C144.751 1.18856 144.841 1.25856 144.881 1.33856C144.921 1.40856 144.951 1.56856 144.981 1.80856L145.211 5.77856C145.211 5.83856 145.161 5.87856 145.061 5.89856C144.961 5.91856 144.891 5.87856 144.851 5.79856C144.381 4.13856 143.651 2.86856 142.651 1.97856C141.651 1.08856 140.391 0.618557 138.871 0.568557C137.391 0.518557 136.071 0.838557 134.911 1.53856C133.751 2.23856 132.821 3.24856 132.141 4.59856C131.461 5.94856 131.081 7.52856 131.021 9.34856C130.961 11.1486 131.251 12.7686 131.881 14.1986C132.511 15.6286 133.411 16.7586 134.561 17.5786C135.711 18.3986 137.031 18.8286 138.511 18.8786C139.971 18.9286 141.201 18.5786 142.191 17.8386C143.181 17.0986 144.081 15.9086 144.871 14.2486C144.891 14.1886 144.951 14.1686 145.051 14.1986C145.151 14.2186 145.201 14.2586 145.201 14.2986L144.691 17.8486C144.641 18.0886 144.601 18.2386 144.551 18.3086C144.511 18.3786 144.411 18.4486 144.241 18.5186C142.421 19.1986 140.491 19.5086 138.451 19.4386C136.331 19.3686 134.451 18.8986 132.791 18.0386C131.141 17.1786 129.861 15.9886 128.971 14.4886C128.081 12.9886 127.661 11.2886 127.731 9.38856C127.791 7.50856 128.331 5.84856 129.351 4.39856C130.371 2.94856 131.741 1.83856 133.471 1.06856C135.201 0.298557 137.121 -0.0614427 139.241 0.00855733C141.461 0.0785573 143.241 0.448557 144.581 1.10856L144.591 1.09856Z" fill="white"/>
<path d="M152.621 2.56831C152.561 2.26831 152.381 2.02831 152.071 1.84831C151.761 1.66831 151.271 1.50831 150.581 1.34831C150.541 1.34831 150.531 1.27831 150.561 1.15831C150.591 1.03831 150.621 0.988315 150.661 0.998315L152.211 1.36831C153.101 1.60831 153.801 1.77831 154.311 1.88831C154.991 2.03831 155.811 2.19831 156.761 2.35831L158.291 2.65831C158.291 2.65831 158.341 2.72831 158.311 2.84831C158.281 2.96831 158.251 3.01831 158.211 3.00831C157.511 2.85831 156.971 2.79831 156.601 2.83831C156.231 2.87831 155.951 3.02831 155.771 3.28831C155.581 3.53831 155.421 3.96831 155.291 4.54831L152.331 18.0583C152.201 18.6483 152.161 19.0883 152.221 19.3983C152.281 19.7083 152.461 19.9483 152.781 20.1183C153.101 20.2883 153.621 20.4583 154.341 20.6183C154.381 20.6183 154.391 20.6883 154.361 20.8083C154.331 20.9283 154.301 20.9783 154.261 20.9683C153.601 20.8183 153.081 20.6983 152.711 20.5983L150.311 20.0383L148.161 19.5983C147.781 19.5383 147.261 19.4283 146.601 19.2883C146.561 19.2883 146.551 19.2183 146.581 19.0983C146.611 18.9783 146.641 18.9283 146.681 18.9383C147.381 19.0883 147.911 19.1583 148.271 19.1283C148.621 19.0983 148.891 18.9583 149.071 18.7083C149.251 18.4483 149.401 18.0283 149.531 17.4383L152.501 3.86831C152.631 3.27831 152.661 2.83831 152.611 2.53831L152.621 2.56831ZM152.481 10.2183L165.321 13.0283L165.151 13.7883L152.311 10.9783L152.481 10.2183ZM165.471 5.42831C165.411 5.11831 165.221 4.86831 164.901 4.67831C164.571 4.48831 164.051 4.30831 163.331 4.14831C163.271 4.13831 163.251 4.06831 163.281 3.95831C163.311 3.83831 163.351 3.78831 163.411 3.79831L164.811 4.13831C165.741 4.37831 166.561 4.58831 167.291 4.73831C167.821 4.85831 168.531 4.98831 169.441 5.14831L171.061 5.46831C171.121 5.47831 171.141 5.54831 171.111 5.66831C171.081 5.78831 171.041 5.83832 170.981 5.82831C170.281 5.67831 169.751 5.61831 169.391 5.64831C169.031 5.68831 168.771 5.82831 168.591 6.06831C168.411 6.31831 168.261 6.73831 168.131 7.31831L165.161 20.8883C165.031 21.4783 164.991 21.9183 165.051 22.2283C165.111 22.5383 165.291 22.7783 165.601 22.9483C165.911 23.1183 166.421 23.2783 167.121 23.4383C167.181 23.4483 167.201 23.5183 167.171 23.6283C167.141 23.7483 167.101 23.7983 167.041 23.7883C166.381 23.6383 165.841 23.5183 165.441 23.4083L163.311 22.9083L160.811 22.3883C160.451 22.3283 159.981 22.2383 159.401 22.1083C159.341 22.0983 159.321 22.0283 159.351 21.9083C159.381 21.7883 159.421 21.7383 159.481 21.7483C160.221 21.9083 160.781 21.9783 161.141 21.9583C161.501 21.9383 161.771 21.7983 161.951 21.5383C162.131 21.2783 162.281 20.8583 162.411 20.2683L165.371 6.75831C165.501 6.16831 165.541 5.72831 165.481 5.41831L165.471 5.42831Z" fill="white"/>
<path d="M187.041 32.0985C186.991 32.2085 186.931 32.2485 186.861 32.2185C186.511 32.0685 185.961 31.8085 185.201 31.4485C184.441 31.0785 183.891 30.8185 183.541 30.6785C183.081 30.4785 182.531 30.2685 181.891 30.0385C181.251 29.8085 180.751 29.6185 180.411 29.4685C180.341 29.4385 180.321 29.3685 180.371 29.2585C180.421 29.1485 180.481 29.1085 180.551 29.1385C181.101 29.3785 181.521 29.4885 181.811 29.4685C182.101 29.4485 182.301 29.3085 182.421 29.0285C182.541 28.7485 182.581 28.2185 182.551 27.4185L181.801 13.2285L183.721 11.8585L173.001 21.8285C172.521 22.2785 172.191 22.7185 172.001 23.1685C171.721 23.8085 171.751 24.3985 172.061 24.9285C172.381 25.4585 172.951 25.8985 173.781 26.2485C173.871 26.2885 173.891 26.3585 173.851 26.4685C173.811 26.5785 173.731 26.6185 173.641 26.5785C173.311 26.4385 172.841 26.2185 172.231 25.9085C171.551 25.5785 170.951 25.2985 170.431 25.0785C169.931 24.8685 169.351 24.6385 168.671 24.3885C168.071 24.1785 167.571 23.9785 167.181 23.8185C167.091 23.7785 167.071 23.7085 167.111 23.5985C167.161 23.4885 167.231 23.4485 167.321 23.4885C167.831 23.7085 168.311 23.7885 168.751 23.7385C169.191 23.6885 169.681 23.4685 170.241 23.0885C170.801 22.7085 171.521 22.0985 172.421 21.2685L184.061 10.4485C184.121 10.4085 184.211 10.4185 184.341 10.4685C184.471 10.5185 184.531 10.5785 184.531 10.6485L185.461 27.1685C185.521 28.7585 185.661 29.8885 185.891 30.5585C186.111 31.2285 186.481 31.6785 187.001 31.8985C187.071 31.9285 187.091 31.9985 187.041 32.1085V32.0985ZM175.731 18.6485L183.451 21.9485L183.351 22.7185L175.071 19.1785L175.721 18.6385L175.731 18.6485Z" fill="white"/>
<path d="M196.161 18.3384C195.101 18.5584 194.001 19.1984 192.851 20.2484C192.821 20.2984 192.761 20.2884 192.671 20.2284C192.581 20.1584 192.551 20.1084 192.571 20.0784C193.051 19.4584 193.661 18.6584 194.401 17.6584C195.141 16.6584 195.671 15.9084 196.001 15.3884C196.051 15.3084 196.131 15.2884 196.221 15.3484C196.311 15.4084 196.331 15.4784 196.281 15.5584C196.051 15.9284 196.401 16.4184 197.361 17.0084C198.791 17.9684 200.481 19.0584 202.431 20.2784C203.431 20.8984 204.501 21.5484 205.641 22.2184L207.391 23.2684C208.031 23.6684 208.531 23.9184 208.881 24.0184C209.231 24.1184 209.531 24.0684 209.771 23.8684C209.831 23.8084 209.901 23.8084 209.991 23.8684C210.071 23.9184 210.101 23.9784 210.051 24.0484C209.671 24.5384 209.121 25.3084 208.401 26.3484C207.681 27.3884 207.121 28.2384 206.701 28.8984C206.681 28.9284 206.621 28.9184 206.531 28.8584C206.441 28.7984 206.391 28.7484 206.401 28.7084C207.051 27.2984 207.251 26.0884 207.011 25.0784C206.771 24.0684 206.111 23.2284 205.041 22.5584C204.571 22.2584 204.191 22.0884 203.911 22.0284C203.631 21.9684 203.381 22.0284 203.161 22.1784C202.941 22.3384 202.691 22.6484 202.411 23.1084L195.091 34.8384C194.771 35.3484 194.591 35.7584 194.551 36.0784C194.511 36.3984 194.611 36.6884 194.861 36.9684C195.111 37.2484 195.571 37.5884 196.231 37.9984C196.281 38.0284 196.271 38.0984 196.211 38.1984C196.151 38.2984 196.091 38.3384 196.041 38.3084C195.451 37.9384 194.991 37.6384 194.661 37.4084L192.591 36.0784L190.591 34.8684C190.221 34.6584 189.721 34.3684 189.101 33.9684C189.071 33.9484 189.081 33.8884 189.141 33.7884C189.201 33.6884 189.251 33.6484 189.291 33.6684C189.951 34.0784 190.471 34.3384 190.831 34.4584C191.201 34.5684 191.511 34.5384 191.781 34.3584C192.041 34.1784 192.331 33.8384 192.651 33.3284L200.011 21.5484C200.291 21.1084 200.451 20.7584 200.491 20.4884C200.541 20.2184 200.471 19.9884 200.301 19.7684C200.131 19.5484 199.801 19.2984 199.331 18.9984C198.291 18.3484 197.251 18.1384 196.191 18.3684L196.161 18.3384Z" fill="white"/>
<path d="M214.071 29.5484C214.171 29.2684 214.141 28.9784 213.971 28.6784C213.801 28.3884 213.471 28.0184 212.981 27.5884C212.951 27.5584 212.981 27.5084 213.051 27.4184C213.131 27.3284 213.181 27.2984 213.211 27.3184L214.381 28.3884C215.011 28.9984 215.531 29.4784 215.921 29.8184C216.371 30.2184 216.941 30.6884 217.631 31.2384L218.781 32.2084C218.781 32.2084 218.811 32.3084 218.731 32.4084C218.651 32.4984 218.591 32.5284 218.541 32.4884C218.041 32.0484 217.641 31.7784 217.331 31.6584C217.021 31.5384 216.721 31.5584 216.441 31.6984C216.161 31.8384 215.821 32.1284 215.421 32.5784L206.281 42.9584C205.871 43.4284 205.611 43.7984 205.511 44.0784C205.411 44.3584 205.441 44.6384 205.611 44.9184C205.781 45.1984 206.111 45.5584 206.631 46.0084C206.691 46.0584 206.681 46.1284 206.601 46.2184C206.521 46.3084 206.451 46.3284 206.391 46.2784C205.911 45.8584 205.531 45.5084 205.261 45.2484L203.641 43.7784L202.021 42.3984C201.721 42.1584 201.321 41.8184 200.811 41.3684C200.781 41.3384 200.811 41.2884 200.881 41.1984C200.961 41.1084 201.011 41.0784 201.041 41.0984C201.551 41.5484 201.951 41.8384 202.251 41.9684C202.551 42.0984 202.841 42.0984 203.121 41.9584C203.401 41.8184 203.741 41.5284 204.141 41.0784L213.321 30.6484C213.721 30.1984 213.971 29.8284 214.071 29.5484ZM221.351 36.1984C221.541 35.9884 221.571 35.7184 221.451 35.3884C221.331 35.0584 221.041 34.6884 220.591 34.2984C220.561 34.2684 220.591 34.2184 220.661 34.1284C220.731 34.0384 220.791 34.0084 220.821 34.0284L221.811 34.9384C222.441 35.5484 223.031 36.0984 223.571 36.5684C224.161 37.0884 224.761 37.5884 225.391 38.0884L226.381 38.9184C226.381 38.9184 226.411 39.0184 226.331 39.1084C226.251 39.1984 226.191 39.2284 226.141 39.1884C225.481 38.6084 224.601 38.1484 223.501 37.8084C222.401 37.4684 221.251 37.3284 220.051 37.3884L209.171 38.1284L208.601 37.5484L219.601 36.7584C220.461 36.7184 221.041 36.5284 221.331 36.1984H221.351ZM211.771 37.6384L214.611 37.5884L214.041 45.0484C213.831 47.3384 213.741 49.0084 213.751 50.0484C213.771 51.0884 213.871 51.8084 214.051 52.2084C214.231 52.6084 214.581 53.0284 215.091 53.4784C215.131 53.5184 215.121 53.5784 215.041 53.6684C214.961 53.7584 214.901 53.7884 214.851 53.7484L212.331 51.5284L211.431 50.7784C211.221 50.5984 211.081 50.3884 211.011 50.1684C210.941 49.9484 210.911 49.6284 210.931 49.2184C210.951 48.8084 211.001 48.0184 211.101 46.8484L211.271 44.7984L211.771 37.6484V37.6384Z" fill="white"/>
<path d="M227.911 69.6882C227.821 69.7682 227.741 69.7682 227.701 69.7082C227.461 69.4082 227.091 68.9282 226.601 68.2482C226.111 67.5682 225.741 67.0782 225.501 66.7882C225.191 66.3982 224.801 65.9482 224.341 65.4482C223.881 64.9482 223.531 64.5382 223.301 64.2482C223.251 64.1882 223.271 64.1182 223.361 64.0382C223.451 63.9582 223.531 63.9582 223.581 64.0182C223.961 64.4882 224.281 64.7782 224.541 64.8982C224.801 65.0182 225.051 64.9882 225.291 64.7982C225.521 64.6082 225.821 64.1582 226.161 63.4382L232.171 50.5582L234.511 50.2582L220.361 54.0082C219.731 54.1782 219.231 54.4182 218.851 54.7182C218.301 55.1582 218.051 55.6882 218.081 56.2982C218.111 56.9082 218.411 57.5682 218.981 58.2682C219.041 58.3482 219.031 58.4182 218.931 58.4982C218.831 58.5782 218.761 58.5682 218.701 58.4982C218.471 58.2182 218.161 57.7982 217.771 57.2482C217.321 56.6282 216.931 56.0982 216.581 55.6682C216.241 55.2482 215.831 54.7682 215.351 54.2282C214.921 53.7582 214.571 53.3582 214.311 53.0282C214.251 52.9482 214.261 52.8782 214.361 52.7982C214.461 52.7182 214.531 52.7282 214.591 52.7982C214.941 53.2382 215.321 53.5282 215.731 53.6882C216.141 53.8482 216.681 53.8882 217.351 53.8082C218.021 53.7282 218.951 53.5382 220.131 53.2282L235.491 49.1582C235.561 49.1582 235.641 49.1982 235.731 49.3082C235.821 49.4182 235.841 49.4982 235.811 49.5482L228.861 64.5582C228.161 65.9882 227.761 67.0582 227.641 67.7582C227.521 68.4582 227.641 69.0282 227.991 69.4582C228.041 69.5182 228.021 69.5882 227.921 69.6682L227.911 69.6882ZM224.251 52.4982L229.511 59.0482L229.061 59.6782L223.421 52.6682L224.251 52.4982Z" fill="white"/>
<path d="M254.961 83.4189C254.961 83.5989 254.931 83.7189 254.881 83.7889C254.831 83.8589 254.711 83.9589 254.511 84.0989L251.081 86.1089C251.031 86.1389 250.971 86.1089 250.911 86.0289C250.851 85.9489 250.851 85.8688 250.911 85.7988C252.171 84.6288 252.971 83.3989 253.311 82.0989C253.651 80.7989 253.491 79.4588 252.851 78.0888C252.221 76.7488 251.331 75.7189 250.181 74.9989C249.031 74.2789 247.701 73.9189 246.191 73.9289C244.681 73.9289 243.101 74.3289 241.451 75.0989C239.821 75.8689 238.521 76.8588 237.531 78.0788C236.541 79.2988 235.951 80.5989 235.751 81.9989C235.551 83.3989 235.761 84.7689 236.391 86.1089C237.011 87.4289 237.881 88.3589 238.991 88.9088C240.101 89.4588 241.571 89.7088 243.411 89.6588C243.471 89.6588 243.521 89.6988 243.541 89.7988C243.561 89.8988 243.561 89.9589 243.521 89.9689L240.121 91.1389C239.891 91.2089 239.731 91.2388 239.651 91.2288C239.571 91.2288 239.461 91.1588 239.321 91.0488C237.881 89.7388 236.731 88.1588 235.861 86.3089C234.961 84.3889 234.511 82.4989 234.531 80.6389C234.551 78.7689 235.021 77.0989 235.951 75.6289C236.881 74.1489 238.201 73.0089 239.921 72.1989C241.621 71.3989 243.351 71.1188 245.101 71.3688C246.851 71.6188 248.471 72.3288 249.941 73.5088C251.411 74.6888 252.611 76.2388 253.511 78.1588C254.461 80.1688 254.941 81.9188 254.961 83.4088V83.4189Z" fill="white"/>
<path d="M257.311 91.259C257.551 91.069 257.681 90.799 257.701 90.439C257.721 90.079 257.641 89.569 257.461 88.889C257.451 88.849 257.501 88.819 257.621 88.789C257.741 88.759 257.801 88.759 257.811 88.799L258.181 90.349C258.371 91.249 258.541 91.949 258.671 92.449C258.851 93.129 259.081 93.929 259.361 94.839L259.781 96.339C259.781 96.339 259.741 96.409 259.621 96.439C259.501 96.469 259.441 96.469 259.431 96.429C259.251 95.729 259.051 95.229 258.851 94.919C258.641 94.609 258.391 94.429 258.071 94.379C257.761 94.329 257.311 94.379 256.731 94.529L243.351 98.029C242.771 98.179 242.351 98.349 242.101 98.539C241.851 98.729 241.721 99.009 241.711 99.369C241.711 99.729 241.791 100.269 241.981 100.989C241.981 101.029 241.941 101.059 241.821 101.089C241.701 101.119 241.641 101.119 241.631 101.079C241.461 100.419 241.331 99.909 241.261 99.529L240.671 97.139L240.091 95.029C239.971 94.669 239.831 94.159 239.661 93.499C239.661 93.459 239.701 93.429 239.821 93.399C239.941 93.369 240.001 93.369 240.011 93.409C240.191 94.109 240.371 94.609 240.561 94.909C240.741 95.209 240.991 95.389 241.301 95.429C241.611 95.469 242.061 95.419 242.641 95.269L256.081 91.749C256.661 91.599 257.071 91.429 257.311 91.239V91.259ZM260.601 104.009C260.851 103.819 260.991 103.539 261.011 103.159C261.031 102.779 260.951 102.229 260.771 101.519C260.761 101.459 260.811 101.419 260.921 101.389C261.031 101.359 261.101 101.369 261.121 101.429L261.461 102.829C261.661 103.769 261.861 104.599 262.051 105.309C262.191 105.829 262.391 106.529 262.661 107.409L263.111 108.999C263.131 109.059 263.071 109.099 262.961 109.129C262.841 109.159 262.781 109.149 262.761 109.089C262.581 108.389 262.391 107.889 262.201 107.589C262.011 107.289 261.761 107.119 261.461 107.069C261.161 107.029 260.721 107.069 260.141 107.229L246.701 110.749C246.121 110.899 245.701 111.069 245.451 111.259C245.201 111.449 245.071 111.719 245.061 112.079C245.051 112.439 245.141 112.959 245.321 113.659C245.331 113.719 245.281 113.759 245.171 113.789C245.061 113.819 244.991 113.809 244.971 113.749C244.801 113.089 244.671 112.559 244.581 112.149L244.051 110.019L243.371 107.559C243.261 107.219 243.131 106.759 242.981 106.169C242.971 106.109 243.021 106.069 243.131 106.039C243.251 106.009 243.311 106.019 243.331 106.079C243.521 106.819 243.711 107.339 243.901 107.649C244.091 107.959 244.331 108.139 244.651 108.179C244.961 108.219 245.411 108.169 245.991 108.019L259.371 104.519C259.951 104.369 260.371 104.199 260.621 104.009H260.601ZM250.431 94.609L253.761 107.319L253.011 107.519L249.681 94.809L250.431 94.609Z" fill="white"/>
<path d="M246.671 135.319C246.551 135.319 246.491 135.289 246.481 135.209C246.451 134.829 246.431 134.219 246.411 133.379C246.391 132.539 246.371 131.929 246.341 131.549C246.311 131.049 246.251 130.459 246.161 129.789C246.071 129.119 246.021 128.589 245.991 128.209C245.991 128.129 246.041 128.089 246.161 128.079C246.281 128.079 246.341 128.109 246.351 128.189C246.391 128.789 246.481 129.209 246.631 129.459C246.781 129.709 247.001 129.829 247.301 129.799C247.601 129.779 248.101 129.569 248.791 129.189L261.081 122.059L263.171 123.149L249.411 118.139C248.791 117.919 248.251 117.829 247.771 117.859C247.071 117.909 246.561 118.189 246.241 118.719C245.911 119.239 245.781 119.949 245.851 120.849C245.851 120.949 245.801 120.999 245.681 121.009C245.561 121.009 245.501 120.969 245.491 120.869C245.471 120.509 245.451 119.989 245.441 119.309C245.431 118.549 245.401 117.889 245.361 117.329C245.321 116.789 245.261 116.159 245.171 115.449C245.091 114.809 245.031 114.289 245.001 113.869C245.001 113.769 245.051 113.719 245.171 113.709C245.291 113.709 245.351 113.749 245.361 113.849C245.401 114.409 245.541 114.869 245.791 115.229C246.041 115.589 246.461 115.939 247.051 116.259C247.641 116.579 248.521 116.949 249.671 117.369L264.601 122.809C264.661 122.849 264.701 122.929 264.711 123.069C264.711 123.209 264.701 123.289 264.641 123.319L250.361 131.669C248.971 132.449 248.031 133.089 247.531 133.589C247.031 134.089 246.811 134.629 246.841 135.189C246.841 135.269 246.791 135.309 246.671 135.319ZM253.491 119.119L254.071 127.499L253.341 127.759L252.721 118.779L253.491 119.119Z" fill="white"/>
<path d="M247.131 140.849C246.871 140.929 246.691 141.089 246.591 141.349C246.491 141.599 246.411 142.019 246.361 142.589L246.201 144.379C246.081 145.799 246.361 147.019 247.071 148.069C247.771 149.109 248.771 149.859 250.081 150.289C250.121 150.289 250.141 150.329 250.131 150.409C250.131 150.449 250.111 150.489 250.071 150.539C250.031 150.589 250.011 150.609 249.991 150.609C248.171 150.269 246.641 150.039 245.381 149.929C245.221 149.919 245.111 149.879 245.041 149.809C244.981 149.739 244.951 149.619 244.971 149.439L246.201 135.449C246.201 135.449 246.261 135.399 246.381 135.409C246.501 135.419 246.561 135.449 246.551 135.489C246.491 136.169 246.501 136.659 246.571 136.979C246.641 137.299 246.821 137.519 247.101 137.659C247.381 137.789 247.821 137.889 248.421 137.939L262.261 139.159C262.861 139.209 263.301 139.199 263.591 139.109C263.881 139.029 264.091 138.829 264.231 138.519C264.371 138.209 264.471 137.729 264.521 137.069C264.521 137.029 264.581 137.019 264.701 137.029C264.821 137.039 264.881 137.069 264.871 137.109L264.711 138.629C264.591 139.499 264.511 140.219 264.461 140.779C264.411 141.379 264.361 142.119 264.331 142.999L264.231 144.499C264.231 144.559 264.161 144.579 264.041 144.569C263.921 144.559 263.861 144.519 263.871 144.459C263.931 143.799 263.921 143.309 263.831 142.979C263.751 142.649 263.571 142.419 263.291 142.289C263.011 142.149 262.571 142.059 261.971 142.009L248.281 140.809C247.761 140.759 247.371 140.779 247.121 140.859L247.131 140.849Z" fill="white"/>
<path d="M244.881 151.268C245.001 151.298 245.051 151.338 245.041 151.398C244.891 152.058 244.821 152.558 244.851 152.878C244.881 153.208 245.021 153.448 245.281 153.628C245.541 153.808 245.961 153.958 246.541 154.088L260.081 157.208C260.661 157.338 261.111 157.388 261.401 157.348C261.701 157.308 261.941 157.138 262.111 156.848C262.281 156.558 262.451 156.098 262.601 155.448C262.611 155.388 262.681 155.378 262.801 155.398C262.921 155.418 262.971 155.468 262.961 155.528L260.161 167.688C260.121 167.878 260.001 167.958 259.831 167.918L256.021 167.098C256.021 167.098 255.971 167.028 255.981 166.918C255.991 166.808 256.031 166.748 256.101 166.748C258.411 166.788 259.821 165.698 260.331 163.478L260.611 162.278C260.781 161.558 260.761 161.028 260.581 160.688C260.391 160.348 260.001 160.108 259.391 159.968L246.031 156.888C245.391 156.738 244.911 156.758 244.601 156.948C244.291 157.128 244.061 157.538 243.921 158.158L243.591 159.588C242.991 162.198 243.861 164.148 246.221 165.428C246.261 165.428 246.271 165.488 246.241 165.588C246.211 165.728 246.161 165.788 246.111 165.768C244.671 165.228 243.341 164.818 242.111 164.538C241.951 164.498 241.851 164.448 241.791 164.368C241.731 164.288 241.731 164.168 241.771 163.998L244.691 151.308C244.701 151.248 244.771 151.238 244.891 151.258L244.881 151.268ZM252.011 161.188L252.951 157.098L253.711 157.268L252.761 161.388C252.271 163.528 252.741 164.768 254.181 165.098C254.241 165.108 254.261 165.168 254.231 165.278C254.211 165.388 254.161 165.428 254.111 165.418L251.571 164.798L250.191 164.508C249.561 164.408 249.051 164.308 248.661 164.218C248.621 164.218 248.621 164.148 248.641 164.028C248.671 163.908 248.701 163.858 248.741 163.868C250.421 164.258 251.511 163.358 252.011 161.168V161.188Z" fill="white"/>
<path d="M256.161 174.809C255.751 173.809 254.931 172.839 253.691 171.889C253.631 171.869 253.631 171.809 253.691 171.709C253.751 171.609 253.781 171.569 253.821 171.589C254.521 171.949 255.421 172.409 256.521 172.949C257.621 173.489 258.471 173.879 259.041 174.109C259.131 174.149 259.161 174.219 259.121 174.319C259.081 174.419 259.011 174.449 258.921 174.419C258.511 174.259 258.101 174.699 257.691 175.739C257.001 177.319 256.231 179.169 255.381 181.309C254.941 182.409 254.501 183.579 254.051 184.819L253.331 186.729C253.051 187.439 252.891 187.969 252.861 188.329C252.821 188.689 252.931 188.969 253.171 189.179C253.241 189.229 253.251 189.299 253.211 189.389C253.171 189.479 253.121 189.509 253.041 189.489C252.491 189.199 251.631 188.799 250.491 188.279C249.341 187.759 248.401 187.359 247.681 187.069C247.641 187.059 247.641 186.999 247.681 186.899C247.721 186.799 247.761 186.739 247.811 186.739C249.311 187.119 250.541 187.099 251.491 186.689C252.441 186.279 253.151 185.479 253.611 184.309C253.821 183.789 253.921 183.389 253.931 183.099C253.941 182.809 253.841 182.579 253.651 182.389C253.451 182.199 253.111 182.009 252.601 181.809L239.751 176.709C239.191 176.489 238.751 176.379 238.441 176.399C238.121 176.409 237.851 176.569 237.631 176.869C237.401 177.169 237.151 177.679 236.861 178.399C236.841 178.459 236.771 178.459 236.661 178.419C236.551 178.379 236.501 178.329 236.531 178.269C236.791 177.619 237.001 177.109 237.171 176.749L238.111 174.469L238.941 172.279C239.081 171.879 239.281 171.339 239.551 170.649C239.561 170.609 239.631 170.619 239.741 170.659C239.851 170.699 239.901 170.739 239.891 170.779C239.601 171.509 239.441 172.059 239.391 172.439C239.351 172.819 239.431 173.119 239.661 173.349C239.891 173.579 240.271 173.799 240.831 174.019L253.741 179.149C254.221 179.339 254.601 179.439 254.871 179.439C255.141 179.439 255.361 179.329 255.541 179.129C255.721 178.919 255.911 178.559 256.121 178.039C256.571 176.909 256.591 175.839 256.181 174.839L256.161 174.809Z" fill="white"/>
<path d="M230.591 206.769C230.731 206.849 230.871 206.949 231.011 207.069C231.131 207.169 231.241 207.269 231.321 207.369C231.411 207.469 231.441 207.529 231.411 207.559L222.491 218.049C222.491 218.049 222.391 218.059 222.261 217.989C222.131 217.919 222.001 217.829 221.871 217.709C221.751 217.609 221.641 217.499 221.541 217.379C221.441 217.259 221.411 217.179 221.441 217.149L230.341 206.679C230.341 206.679 230.451 206.679 230.591 206.759V206.769Z" fill="white"/>
<path d="M198.451 237.089L197.631 239.819L190.701 237.009C188.581 236.109 187.021 235.509 186.021 235.209C185.021 234.909 184.311 234.779 183.871 234.829C183.431 234.879 182.921 235.079 182.341 235.429C182.291 235.459 182.231 235.429 182.171 235.319C182.111 235.219 182.101 235.149 182.151 235.119L185.031 233.399L186.021 232.769C186.261 232.629 186.501 232.549 186.731 232.549C186.961 232.549 187.271 232.619 187.661 232.759C188.051 232.899 188.781 233.189 189.871 233.639L191.771 234.419L198.431 237.079L198.451 237.089ZM205.451 241.749C205.691 241.929 205.971 241.989 206.301 241.919C206.631 241.849 207.081 241.649 207.651 241.309C207.681 241.289 207.731 241.329 207.791 241.429C207.851 241.529 207.871 241.599 207.831 241.619L206.451 242.409C205.671 242.829 205.061 243.169 204.621 243.439C204.111 243.749 203.481 244.149 202.751 244.629L201.481 245.429C201.431 245.459 201.371 245.429 201.311 245.319C201.251 245.219 201.241 245.149 201.291 245.119C201.861 244.779 202.241 244.479 202.451 244.219C202.661 243.959 202.731 243.669 202.691 243.359C202.641 243.049 202.471 242.639 202.161 242.119L195.061 230.249C194.741 229.719 194.461 229.359 194.231 229.179C193.991 228.999 193.711 228.939 193.401 229.009C193.081 229.079 192.631 229.289 192.051 229.639C191.981 229.679 191.921 229.639 191.851 229.549C191.791 229.449 191.791 229.379 191.861 229.329C192.411 228.999 192.851 228.749 193.191 228.569L195.091 227.469L196.901 226.349C197.221 226.139 197.671 225.859 198.251 225.509C198.291 225.489 198.331 225.529 198.391 225.629C198.451 225.729 198.471 225.799 198.431 225.819C197.851 226.169 197.451 226.469 197.231 226.709C197.021 226.959 196.931 227.229 196.981 227.539C197.031 227.849 197.201 228.259 197.511 228.779L204.641 240.699C204.951 241.209 205.221 241.559 205.461 241.749H205.451ZM196.901 246.649C197.041 246.889 197.291 246.999 197.651 246.989C198.001 246.979 198.441 246.819 198.951 246.509C198.981 246.489 199.031 246.529 199.091 246.629C199.151 246.729 199.171 246.799 199.131 246.819L197.961 247.489C197.181 247.909 196.491 248.299 195.871 248.669C195.201 249.069 194.531 249.489 193.871 249.939L192.781 250.629C192.731 250.659 192.671 250.629 192.611 250.519C192.551 250.419 192.541 250.349 192.601 250.319C193.361 249.869 194.061 249.169 194.721 248.229C195.381 247.289 195.861 246.229 196.171 245.069L198.791 234.489L199.521 234.129L196.911 244.849C196.691 245.679 196.691 246.289 196.911 246.669L196.901 246.649Z" fill="white"/>
<path d="M162.991 242.638C162.951 242.528 162.961 242.458 163.041 242.428C163.391 242.288 163.971 242.098 164.771 241.828C165.571 241.558 166.151 241.368 166.501 241.228C166.971 241.048 167.511 240.818 168.131 240.538C168.751 240.258 169.241 240.048 169.591 239.918C169.671 239.888 169.721 239.928 169.771 240.038C169.811 240.148 169.801 240.218 169.721 240.248C169.161 240.458 168.781 240.678 168.581 240.888C168.381 241.098 168.341 241.348 168.451 241.628C168.561 241.908 168.901 242.328 169.471 242.878L179.881 252.548L179.451 254.868L180.221 240.248C180.251 239.598 180.181 239.048 180.011 238.598C179.761 237.948 179.341 237.538 178.741 237.378C178.141 237.218 177.431 237.298 176.591 237.628C176.501 237.668 176.431 237.628 176.381 237.518C176.341 237.408 176.361 237.328 176.461 237.298C176.801 237.168 177.291 236.998 177.941 236.798C178.661 236.568 179.291 236.348 179.811 236.148C180.311 235.958 180.891 235.708 181.551 235.418C182.131 235.148 182.621 234.948 183.011 234.798C183.101 234.758 183.171 234.798 183.221 234.908C183.261 235.018 183.241 235.098 183.141 235.128C182.621 235.328 182.221 235.598 181.941 235.938C181.661 236.278 181.461 236.778 181.331 237.438C181.201 238.098 181.101 239.038 181.031 240.268L180.191 256.138C180.171 256.208 180.101 256.268 179.971 256.318C179.841 256.368 179.751 256.368 179.711 256.318L167.551 245.098C166.401 243.998 165.511 243.278 164.881 242.958C164.251 242.628 163.681 242.568 163.151 242.768C163.081 242.798 163.021 242.758 162.971 242.638H162.991ZM180.471 244.428L172.621 247.428L172.161 246.808L180.571 243.598L180.471 244.438V244.428Z" fill="white"/>
<path d="M139.451 246.688C139.431 246.568 139.441 246.508 139.481 246.498C140.131 246.388 140.661 246.308 141.051 246.268L143.191 245.938L145.261 245.558C145.611 245.478 146.111 245.388 146.761 245.278C146.801 245.278 146.831 245.328 146.851 245.448C146.871 245.568 146.861 245.628 146.821 245.638C146.171 245.748 145.701 245.878 145.401 246.048C145.101 246.208 144.931 246.438 144.881 246.728C144.831 247.018 144.881 247.458 145.011 248.048L147.901 261.468L146.941 263.728L151.541 244.708C151.571 244.618 151.641 244.568 151.761 244.548C151.861 244.528 151.951 244.548 152.051 244.618L162.721 259.108C163.201 259.778 163.691 260.238 164.201 260.498C164.711 260.758 165.261 260.838 165.851 260.738C165.911 260.738 165.951 260.778 165.971 260.898C165.991 261.018 165.971 261.078 165.911 261.088L164.631 261.268C164.371 261.288 164.031 261.338 163.621 261.408L162.261 261.668C162.091 261.718 161.881 261.758 161.641 261.798C161.381 261.838 161.161 261.778 160.971 261.618C160.781 261.458 160.461 261.078 160.021 260.488L151.181 248.558L152.081 246.098L147.761 263.368C147.691 263.668 147.591 263.878 147.471 264.008C147.351 264.138 147.191 264.218 146.991 264.258C146.851 264.278 146.671 264.298 146.451 264.318C146.231 264.338 145.961 264.368 145.651 264.418L144.061 264.718C143.811 264.778 143.431 264.858 142.941 264.938C142.881 264.948 142.841 264.898 142.821 264.778C142.801 264.658 142.821 264.598 142.881 264.588C143.811 264.428 144.451 264.148 144.821 263.728C145.191 263.308 145.281 262.708 145.111 261.928L142.191 248.518C142.051 247.918 141.891 247.478 141.731 247.228C141.571 246.968 141.331 246.818 141.011 246.768C140.701 246.718 140.211 246.748 139.541 246.858C139.501 246.858 139.471 246.808 139.451 246.688ZM163.121 260.858L162.311 260.928L160.261 246.698C160.101 245.648 159.771 244.888 159.251 244.408C158.731 243.928 158.051 243.758 157.201 243.898C157.141 243.898 157.101 243.858 157.081 243.738C157.061 243.618 157.081 243.558 157.141 243.548C157.671 243.458 158.091 243.398 158.391 243.368L160.021 243.128L161.761 242.808C162.051 242.738 162.471 242.658 163.001 242.568C163.061 242.568 163.101 242.608 163.121 242.728C163.141 242.848 163.121 242.908 163.061 242.918C162.251 243.058 161.671 243.438 161.321 244.058C160.971 244.688 160.871 245.518 161.031 246.568L163.121 260.848V260.858Z" fill="white"/>
<path d="M121.061 263.969C120.901 263.889 120.801 263.809 120.771 263.739C120.731 263.669 120.701 263.509 120.661 263.269L120.411 259.299C120.411 259.239 120.461 259.199 120.561 259.179C120.661 259.159 120.731 259.189 120.771 259.279C121.251 260.929 121.991 262.199 122.991 263.089C124.001 263.979 125.261 264.439 126.781 264.479C128.261 264.519 129.581 264.189 130.741 263.489C131.901 262.789 132.821 261.759 133.491 260.409C134.171 259.059 134.531 257.469 134.581 255.649C134.631 253.849 134.331 252.239 133.691 250.809C133.051 249.379 132.151 248.259 130.991 247.449C129.831 246.639 128.511 246.209 127.031 246.169C125.571 246.129 124.351 246.479 123.361 247.229C122.371 247.969 121.481 249.179 120.701 250.829C120.681 250.889 120.621 250.909 120.521 250.889C120.421 250.869 120.371 250.839 120.371 250.799L120.861 247.239C120.911 246.999 120.951 246.849 120.991 246.779C121.031 246.709 121.131 246.639 121.301 246.559C123.121 245.869 125.051 245.549 127.091 245.609C129.211 245.669 131.101 246.119 132.761 246.979C134.421 247.829 135.701 249.009 136.601 250.499C137.501 251.989 137.921 253.689 137.871 255.589C137.821 257.469 137.291 259.129 136.281 260.589C135.271 262.039 133.901 263.159 132.181 263.949C130.461 264.729 128.541 265.099 126.421 265.039C124.201 264.979 122.421 264.619 121.081 263.969H121.061Z" fill="white"/>
<path d="M100.131 259.759C100.191 260.069 100.381 260.319 100.711 260.509C101.041 260.699 101.561 260.879 102.291 261.029C102.351 261.039 102.371 261.109 102.341 261.229C102.321 261.349 102.271 261.399 102.211 261.389L100.811 261.059C99.8809 260.819 99.0509 260.619 98.3309 260.469C97.8009 260.359 97.0809 260.219 96.1809 260.069L94.5609 259.759C94.5009 259.749 94.4809 259.679 94.5109 259.569C94.5309 259.449 94.5809 259.399 94.6409 259.409C95.3409 259.559 95.8709 259.619 96.2309 259.579C96.5909 259.539 96.8509 259.399 97.0309 259.149C97.2109 258.899 97.3609 258.479 97.4809 257.899L100.371 244.319C100.491 243.729 100.531 243.279 100.471 242.979C100.411 242.669 100.231 242.429 99.9209 242.259C99.6109 242.089 99.1009 241.929 98.4009 241.779C98.3409 241.769 98.3209 241.699 98.3509 241.589C98.3709 241.469 98.4209 241.419 98.4809 241.429C99.1509 241.569 99.6809 241.699 100.091 241.799L102.231 242.289L104.731 242.789C105.091 242.839 105.561 242.939 106.141 243.059C106.201 243.069 106.221 243.139 106.191 243.249C106.171 243.369 106.121 243.419 106.061 243.409C105.321 243.249 104.761 243.189 104.401 243.209C104.041 243.239 103.771 243.379 103.591 243.639C103.411 243.899 103.261 244.319 103.141 244.909L100.261 258.439C100.141 259.029 100.101 259.469 100.161 259.779L100.131 259.759ZM113.101 254.899L100.251 252.159L100.411 251.399L113.261 254.139L113.101 254.899ZM113.001 262.549C113.061 262.849 113.241 263.089 113.551 263.269C113.861 263.449 114.361 263.609 115.041 263.759C115.081 263.759 115.091 263.829 115.061 263.949C115.031 264.069 115.001 264.119 114.961 264.109L113.411 263.749C112.521 263.519 111.821 263.349 111.311 263.239C110.631 263.089 109.811 262.939 108.861 262.779L107.331 262.489C107.331 262.489 107.281 262.419 107.311 262.299C107.331 262.179 107.371 262.129 107.411 262.139C108.111 262.289 108.651 262.339 109.021 262.299C109.391 262.259 109.671 262.099 109.851 261.849C110.041 261.589 110.191 261.169 110.321 260.579L113.201 247.049C113.321 246.459 113.361 246.009 113.301 245.709C113.241 245.399 113.051 245.159 112.731 244.989C112.411 244.819 111.891 244.659 111.161 244.499C111.121 244.499 111.111 244.429 111.141 244.309C111.161 244.189 111.201 244.139 111.241 244.149C111.911 244.289 112.421 244.409 112.791 244.509L115.191 245.049L117.341 245.479C117.721 245.539 118.241 245.639 118.901 245.779C118.941 245.779 118.951 245.849 118.921 245.969C118.901 246.089 118.861 246.139 118.821 246.129C118.121 245.979 117.591 245.919 117.231 245.949C116.881 245.979 116.611 246.119 116.431 246.379C116.251 246.639 116.101 247.059 115.981 247.649L113.091 261.229C112.971 261.819 112.931 262.259 112.991 262.559L113.001 262.549Z" fill="white"/>
<path d="M78.4409 233.228C78.4909 233.118 78.5509 233.078 78.6209 233.108C78.9709 233.258 79.5309 233.508 80.2809 233.868C81.0409 234.228 81.5909 234.488 81.9409 234.628C82.4009 234.818 82.9509 235.028 83.5909 235.258C84.2309 235.488 84.7309 235.668 85.0809 235.818C85.1509 235.848 85.1709 235.918 85.1209 236.028C85.0709 236.138 85.0109 236.178 84.9409 236.148C84.3909 235.918 83.9709 235.808 83.6709 235.828C83.3809 235.848 83.1809 235.998 83.0609 236.268C82.9409 236.538 82.9009 237.078 82.9409 237.878L83.7809 252.058L81.8709 253.438L92.5309 243.408C93.0009 242.958 93.3309 242.508 93.5209 242.068C93.7909 241.418 93.7709 240.838 93.4409 240.308C93.1209 239.778 92.5409 239.348 91.7109 238.998C91.6209 238.958 91.5909 238.888 91.6409 238.778C91.6909 238.668 91.7609 238.628 91.8509 238.668C92.1809 238.808 92.6509 239.028 93.2709 239.328C93.9609 239.658 94.5609 239.938 95.0709 240.148C95.5709 240.358 96.1609 240.578 96.8409 240.828C97.4509 241.038 97.9409 241.228 98.3309 241.388C98.4209 241.428 98.4509 241.498 98.4009 241.608C98.3509 241.718 98.2809 241.758 98.1909 241.718C97.6709 241.498 97.2009 241.418 96.7609 241.478C96.3209 241.538 95.8309 241.758 95.2809 242.138C94.7309 242.528 94.0009 243.138 93.1109 243.978L81.5409 254.858C81.4809 254.898 81.3909 254.888 81.2609 254.838C81.1309 254.788 81.0709 254.728 81.0709 254.658L80.0409 238.148C79.9709 236.558 79.8209 235.428 79.6009 234.758C79.3709 234.088 79.0009 233.648 78.4809 233.428C78.4109 233.398 78.3909 233.328 78.4409 233.218V233.228ZM89.8309 246.608L82.0909 243.348L82.1909 242.578L90.4909 246.068L89.8409 246.608H89.8309Z" fill="white"/>
<path d="M69.401 247.039C70.461 246.809 71.561 246.169 72.701 245.109C72.731 245.059 72.791 245.069 72.881 245.129C72.971 245.199 73.001 245.249 72.981 245.279C72.501 245.899 71.901 246.709 71.171 247.709C70.441 248.699 69.911 249.469 69.591 249.989C69.541 250.069 69.461 250.089 69.371 250.029C69.281 249.969 69.261 249.899 69.311 249.819C69.541 249.439 69.181 248.959 68.231 248.379C66.801 247.429 65.101 246.349 63.141 245.139C62.141 244.519 61.061 243.879 59.921 243.219L58.171 242.179C57.521 241.779 57.021 241.529 56.671 241.429C56.321 241.329 56.021 241.379 55.781 241.589C55.721 241.649 55.651 241.649 55.561 241.589C55.481 241.539 55.451 241.479 55.501 241.409C55.881 240.909 56.421 240.139 57.131 239.099C57.841 238.059 58.401 237.209 58.811 236.539C58.831 236.509 58.891 236.519 58.981 236.579C59.071 236.639 59.121 236.689 59.111 236.729C58.471 238.149 58.281 239.359 58.521 240.369C58.771 241.379 59.431 242.209 60.501 242.879C60.981 243.169 61.361 243.349 61.641 243.409C61.921 243.469 62.171 243.409 62.391 243.249C62.611 243.089 62.861 242.779 63.141 242.319L70.401 230.549C70.711 230.039 70.891 229.629 70.931 229.309C70.971 228.999 70.871 228.699 70.611 228.429C70.361 228.159 69.901 227.809 69.231 227.409C69.181 227.379 69.191 227.309 69.251 227.209C69.311 227.109 69.371 227.069 69.421 227.099C70.021 227.469 70.481 227.759 70.811 227.989L72.891 229.309L74.901 230.509C75.271 230.709 75.771 231.009 76.401 231.399C76.431 231.419 76.421 231.479 76.361 231.579C76.301 231.679 76.251 231.719 76.211 231.699C75.551 231.289 75.031 231.029 74.661 230.919C74.291 230.809 73.981 230.849 73.711 231.019C73.451 231.199 73.161 231.539 72.841 232.049L65.551 243.879C65.281 244.319 65.121 244.679 65.071 244.939C65.021 245.199 65.091 245.439 65.261 245.659C65.431 245.869 65.761 246.129 66.241 246.419C67.281 247.059 68.331 247.259 69.381 247.039H69.401Z" fill="white"/>
<path d="M44.1109 229.339C43.9309 229.549 43.9009 229.819 44.0209 230.149C44.1409 230.479 44.4309 230.839 44.8809 231.239C44.9109 231.269 44.8809 231.319 44.8109 231.419C44.7409 231.519 44.6809 231.539 44.6509 231.519L43.6509 230.609C43.0109 229.999 42.4209 229.459 41.8809 228.989C41.2909 228.479 40.6809 227.969 40.0509 227.479L39.0609 226.659C39.0609 226.659 39.0309 226.559 39.1109 226.459C39.1909 226.369 39.2509 226.339 39.3009 226.379C39.9609 226.959 40.8509 227.409 41.9509 227.749C43.0509 228.089 44.2009 228.219 45.4009 228.149L56.2709 227.349L56.8409 227.929L45.8409 228.779C44.9809 228.829 44.4009 229.009 44.1109 229.349V229.339ZM51.4309 235.939C51.3309 236.219 51.3609 236.509 51.5309 236.799C51.7009 237.089 52.0309 237.459 52.5309 237.889C52.5609 237.919 52.5309 237.969 52.4609 238.059C52.3809 238.149 52.3309 238.179 52.3009 238.159L51.1209 237.089C50.4809 236.479 49.9709 236.009 49.5709 235.669C49.1209 235.279 48.5509 234.809 47.8609 234.259L46.7109 233.299C46.7109 233.299 46.6809 233.199 46.7609 233.099C46.8409 233.009 46.9009 232.979 46.9509 233.019C47.4509 233.449 47.8509 233.729 48.1709 233.839C48.4809 233.949 48.7809 233.939 49.0609 233.799C49.3409 233.659 49.6809 233.359 50.0709 232.909L59.1409 222.469C59.5509 221.999 59.8009 221.629 59.9009 221.339C60.0009 221.059 59.9709 220.779 59.8009 220.499C59.6309 220.219 59.2909 219.859 58.7809 219.409C58.7209 219.359 58.7309 219.289 58.8109 219.199C58.8909 219.109 58.9609 219.089 59.0209 219.139C59.5009 219.559 59.8809 219.899 60.1509 220.169L61.7809 221.629L63.4109 223.009C63.7109 223.239 64.1209 223.579 64.6309 224.029C64.6609 224.059 64.6309 224.109 64.5609 224.199C64.4809 224.289 64.4309 224.319 64.4009 224.299C63.8909 223.849 63.4809 223.569 63.1809 223.439C62.8809 223.309 62.5909 223.319 62.3109 223.459C62.0309 223.599 61.6909 223.899 61.3009 224.349L52.1909 234.829C51.8009 235.279 51.5509 235.649 51.4509 235.929L51.4309 235.939ZM53.6809 227.839L50.8409 227.909L51.3609 220.449C51.5509 218.149 51.6409 216.489 51.6209 215.449C51.6009 214.409 51.4909 213.689 51.3109 213.289C51.1309 212.889 50.7809 212.469 50.2609 212.019C50.2109 211.979 50.2309 211.919 50.3109 211.829C50.3909 211.739 50.4509 211.709 50.5009 211.749L53.0409 213.959L53.9409 214.709C54.1509 214.889 54.2909 215.099 54.3709 215.319C54.4409 215.539 54.4709 215.859 54.4609 216.269C54.4509 216.679 54.4009 217.469 54.3109 218.639L54.1609 220.689L53.7009 227.849L53.6809 227.839Z" fill="white"/>
<path d="M37.3408 195.868C37.4308 195.788 37.5108 195.788 37.5608 195.848C37.8008 196.138 38.1708 196.628 38.6708 197.308C39.1708 197.988 39.5408 198.468 39.7808 198.768C40.1008 199.158 40.4808 199.598 40.9408 200.098C41.4008 200.598 41.7508 200.998 41.9908 201.298C42.0408 201.358 42.0208 201.428 41.9308 201.508C41.8408 201.588 41.7608 201.588 41.7108 201.528C41.3308 201.058 41.0108 200.768 40.7408 200.648C40.4808 200.528 40.2308 200.568 39.9908 200.748C39.7608 200.938 39.4708 201.388 39.1208 202.108L33.1908 215.018L30.8508 215.328L44.9808 211.498C45.6108 211.318 46.1108 211.078 46.4808 210.778C47.0208 210.338 47.2808 209.808 47.2408 209.198C47.2008 208.578 46.9008 207.928 46.3308 207.228C46.2708 207.148 46.2808 207.078 46.3808 206.998C46.4708 206.918 46.5508 206.928 46.6108 206.998C46.8408 207.278 47.1508 207.698 47.5508 208.248C48.0008 208.868 48.4008 209.388 48.7508 209.818C49.0908 210.238 49.5008 210.708 49.9908 211.248C50.4308 211.718 50.7808 212.118 51.0408 212.448C51.1008 212.528 51.0908 212.598 50.9908 212.678C50.9008 212.758 50.8208 212.758 50.7608 212.678C50.4108 212.248 50.0208 211.948 49.6108 211.788C49.2008 211.628 48.6608 211.598 47.9908 211.678C47.3208 211.758 46.3908 211.958 45.2108 212.278L29.8808 216.438C29.8108 216.438 29.7308 216.398 29.6408 216.288C29.5508 216.178 29.5208 216.098 29.5608 216.048L36.4208 200.998C37.1108 199.558 37.5108 198.498 37.6208 197.798C37.7408 197.098 37.6208 196.528 37.2608 196.098C37.2108 196.038 37.2308 195.968 37.3208 195.888L37.3408 195.868ZM41.1008 213.038L35.8008 206.518L36.2508 205.878L41.9308 212.858L41.1008 213.028V213.038Z" fill="white"/>
<path d="M10.2109 182.308C10.2109 182.128 10.2409 182.008 10.2809 181.938C10.3209 181.868 10.4509 181.768 10.6509 181.628L14.0709 179.588C14.1209 179.558 14.1809 179.588 14.2409 179.668C14.3009 179.748 14.3009 179.828 14.2409 179.898C12.9909 181.078 12.1909 182.318 11.8609 183.618C11.5309 184.918 11.6909 186.258 12.3509 187.628C12.9909 188.958 13.8809 189.988 15.0409 190.698C16.2009 191.408 17.5209 191.758 19.0309 191.748C20.5409 191.738 22.1209 191.328 23.7609 190.548C25.3809 189.768 26.6809 188.768 27.6609 187.548C28.6409 186.328 29.2209 185.018 29.4209 183.618C29.6209 182.218 29.3909 180.848 28.7509 179.518C28.1209 178.198 27.2509 177.268 26.1309 176.728C25.0209 176.188 23.5409 175.948 21.7109 175.998C21.6509 175.998 21.6009 175.958 21.5809 175.858C21.5609 175.758 21.5609 175.698 21.6009 175.688L24.9909 174.498C25.2209 174.428 25.3809 174.398 25.4609 174.408C25.5409 174.408 25.6509 174.468 25.7909 174.578C27.2309 175.878 28.4009 177.458 29.2809 179.298C30.2009 181.208 30.6509 183.098 30.6509 184.968C30.6509 186.838 30.1809 188.508 29.2609 189.988C28.3409 191.468 27.0209 192.618 25.3109 193.438C23.6109 194.248 21.8909 194.538 20.1409 194.298C18.3909 194.058 16.7709 193.358 15.2909 192.178C13.8109 191.008 12.6109 189.458 11.6909 187.548C10.7309 185.548 10.2409 183.798 10.2109 182.298V182.308Z" fill="white"/>
<path d="M4.45102 161.738C4.20102 161.928 4.07102 162.218 4.04102 162.598C4.02102 162.978 4.10102 163.528 4.29102 164.238C4.31102 164.298 4.26102 164.338 4.14102 164.368C4.02102 164.398 3.96102 164.388 3.94102 164.328L3.60102 162.928C3.39102 161.988 3.19102 161.168 3.00102 160.448C2.86102 159.928 2.65102 159.228 2.37102 158.348L1.91102 156.758C1.89102 156.698 1.94102 156.658 2.06102 156.628C2.18102 156.598 2.24102 156.608 2.26102 156.668C2.45102 157.368 2.64102 157.858 2.83102 158.158C3.02102 158.458 3.27102 158.628 3.57102 158.668C3.87102 158.708 4.31102 158.658 4.89102 158.498L18.311 154.898C18.891 154.738 19.301 154.568 19.551 154.378C19.801 154.188 19.931 153.918 19.941 153.558C19.941 153.208 19.861 152.678 19.671 151.988C19.651 151.928 19.701 151.888 19.821 151.858C19.941 151.828 20.001 151.838 20.021 151.898C20.201 152.558 20.331 153.088 20.421 153.498L20.961 155.618L21.651 158.078C21.761 158.418 21.901 158.878 22.051 159.458C22.071 159.518 22.021 159.558 21.901 159.588C21.781 159.618 21.721 159.608 21.701 159.548C21.501 158.818 21.311 158.288 21.121 157.978C20.931 157.668 20.681 157.488 20.371 157.448C20.061 157.408 19.611 157.468 19.031 157.618L5.67102 161.198C5.09102 161.358 4.68102 161.528 4.43102 161.718L4.45102 161.738ZM7.82102 174.468C7.58102 174.658 7.45102 174.928 7.43102 175.288C7.41102 175.648 7.49102 176.158 7.67102 176.838C7.68102 176.878 7.63102 176.908 7.51102 176.938C7.39102 176.968 7.33102 176.968 7.32102 176.928L6.94102 175.388C6.74102 174.488 6.57102 173.788 6.44102 173.288C6.26102 172.608 6.02102 171.818 5.74102 170.898L5.31102 169.398C5.31102 169.398 5.35102 169.328 5.47102 169.298C5.59102 169.268 5.65102 169.268 5.66102 169.308C5.85102 170.008 6.04102 170.508 6.25102 170.808C6.46102 171.118 6.72102 171.298 7.03102 171.348C7.34102 171.398 7.79102 171.348 8.37102 171.188L21.731 167.608C22.311 167.448 22.721 167.278 22.971 167.088C23.221 166.898 23.351 166.618 23.351 166.258C23.351 165.898 23.261 165.358 23.071 164.638C23.061 164.598 23.111 164.568 23.231 164.528C23.351 164.498 23.411 164.498 23.421 164.538C23.601 165.198 23.721 165.708 23.801 166.078L24.411 168.458L25.011 170.568C25.131 170.928 25.271 171.438 25.451 172.098C25.461 172.138 25.411 172.168 25.291 172.208C25.171 172.238 25.111 172.238 25.101 172.198C24.911 171.498 24.731 171.008 24.541 170.698C24.361 170.398 24.111 170.228 23.801 170.188C23.491 170.148 23.041 170.208 22.461 170.358L9.04102 173.958C8.46102 174.118 8.05102 174.288 7.81102 174.478L7.82102 174.468ZM14.681 171.078L11.281 158.388L12.031 158.188L15.431 170.878L14.681 171.078Z" fill="white"/>
<path d="M18.201 130.358C18.321 130.358 18.381 130.388 18.391 130.468C18.421 130.848 18.441 131.458 18.471 132.298C18.491 133.138 18.521 133.748 18.551 134.128C18.591 134.628 18.651 135.218 18.741 135.888C18.831 136.568 18.891 137.088 18.921 137.468C18.921 137.548 18.871 137.588 18.751 137.598C18.631 137.598 18.571 137.568 18.561 137.488C18.521 136.888 18.421 136.468 18.271 136.218C18.121 135.968 17.901 135.858 17.601 135.878C17.301 135.898 16.801 136.108 16.111 136.498L3.86098 143.708L1.76098 142.628L15.551 147.548C16.171 147.758 16.721 147.848 17.191 147.818C17.891 147.768 18.401 147.478 18.721 146.948C19.041 146.418 19.171 145.708 19.101 144.818C19.101 144.718 19.151 144.668 19.271 144.658C19.391 144.648 19.451 144.698 19.461 144.798C19.491 145.158 19.511 145.678 19.521 146.358C19.541 147.118 19.571 147.778 19.611 148.338C19.651 148.878 19.721 149.508 19.811 150.218C19.901 150.858 19.961 151.378 19.991 151.798C19.991 151.898 19.941 151.948 19.821 151.958C19.701 151.958 19.641 151.918 19.631 151.818C19.591 151.258 19.441 150.798 19.201 150.438C18.951 150.078 18.531 149.738 17.941 149.418C17.341 149.098 16.471 148.738 15.321 148.318L0.350981 142.978C0.290981 142.938 0.250981 142.858 0.240981 142.718C0.230981 142.578 0.250981 142.498 0.310981 142.468L14.541 134.028C15.931 133.238 16.861 132.598 17.361 132.088C17.851 131.578 18.081 131.048 18.041 130.488C18.041 130.408 18.091 130.368 18.211 130.358H18.201ZM11.471 146.598L10.841 138.218L11.571 137.948L12.241 146.928L11.461 146.598H11.471Z" fill="white"/>
<path d="M17.7111 124.819C17.9711 124.739 18.1511 124.569 18.2511 124.319C18.3511 124.069 18.4311 123.649 18.4711 123.069L18.6211 121.279C18.7411 119.859 18.4411 118.639 17.7311 117.589C17.0211 116.549 16.0111 115.809 14.7111 115.379C14.6711 115.379 14.6511 115.339 14.6611 115.259C14.6611 115.219 14.6811 115.179 14.7211 115.129C14.7511 115.079 14.7811 115.059 14.8011 115.059C16.6211 115.389 18.1611 115.609 19.4111 115.709C19.5711 115.719 19.6811 115.759 19.7511 115.829C19.8211 115.899 19.8411 116.019 19.8311 116.199L18.6811 130.189C18.6811 130.189 18.6211 130.239 18.5011 130.229C18.3811 130.219 18.3211 130.189 18.3311 130.149C18.3911 129.469 18.3811 128.979 18.3011 128.659C18.2311 128.339 18.0511 128.119 17.7711 127.979C17.4911 127.849 17.0511 127.759 16.4511 127.709L2.61108 126.569C2.01108 126.519 1.57107 126.539 1.28108 126.629C0.991075 126.719 0.781075 126.919 0.641075 127.219C0.501075 127.529 0.411075 128.009 0.351075 128.669C0.351075 128.709 0.291075 128.719 0.171075 128.709C0.0510751 128.699 -0.0089249 128.679 0.0010751 128.639L0.161075 127.119C0.271075 126.249 0.351075 125.529 0.401075 124.969C0.451075 124.369 0.491075 123.629 0.521075 122.749L0.611075 121.249C0.611075 121.189 0.681075 121.169 0.801075 121.179C0.921075 121.179 0.981075 121.219 0.971075 121.279C0.921075 121.939 0.931075 122.429 1.01108 122.759C1.09108 123.089 1.28108 123.319 1.56108 123.449C1.84108 123.579 2.28108 123.669 2.88108 123.719L16.5711 124.849C17.0911 124.889 17.4811 124.869 17.7311 124.799L17.7111 124.819Z" fill="white"/>
<path d="M19.901 114.388C19.781 114.358 19.731 114.318 19.741 114.258C19.891 113.598 19.951 113.098 19.921 112.778C19.891 112.458 19.751 112.208 19.491 112.038C19.231 111.868 18.811 111.718 18.221 111.588L4.67105 108.548C4.08105 108.418 3.64105 108.378 3.35105 108.418C3.06105 108.458 2.82105 108.628 2.64105 108.918C2.46105 109.208 2.30105 109.668 2.16105 110.318C2.15105 110.378 2.08105 110.398 1.96105 110.368C1.84105 110.338 1.79105 110.298 1.80105 110.238L4.53105 98.0584C4.57105 97.8684 4.68105 97.7884 4.86105 97.8284L8.68105 98.6184C8.68105 98.6184 8.73105 98.6884 8.72105 98.7984C8.71105 98.9084 8.67105 98.9684 8.60105 98.9684C6.29105 98.9384 4.89105 100.038 4.39105 102.268L4.12105 103.468C3.96105 104.188 3.97105 104.718 4.16105 105.058C4.35105 105.398 4.75105 105.638 5.35105 105.768L18.731 108.768C19.371 108.908 19.851 108.888 20.161 108.708C20.471 108.518 20.691 108.118 20.831 107.488L21.151 106.058C21.741 103.438 20.851 101.498 18.491 100.238C18.451 100.238 18.441 100.178 18.461 100.078C18.491 99.9384 18.541 99.8784 18.591 99.8884C20.031 100.418 21.361 100.818 22.591 101.088C22.751 101.128 22.851 101.178 22.911 101.248C22.971 101.318 22.9711 101.448 22.931 101.618L20.081 114.328C20.071 114.388 20.001 114.398 19.881 114.378L19.901 114.388ZM12.711 104.508L11.791 108.608L11.031 108.438L11.951 104.308C12.431 102.158 11.951 100.928 10.511 100.598C10.451 100.588 10.431 100.528 10.461 100.418C10.481 100.308 10.531 100.268 10.581 100.278L13.121 100.878L14.501 101.158C15.131 101.258 15.651 101.348 16.041 101.438C16.081 101.438 16.091 101.508 16.061 101.628C16.031 101.748 16.001 101.798 15.961 101.788C14.281 101.408 13.201 102.318 12.711 104.498V104.508Z" fill="white"/>
<path d="M8.48105 90.909C8.90105 91.909 9.73105 92.879 10.971 93.809C11.031 93.829 11.031 93.889 10.971 93.989C10.921 94.089 10.881 94.129 10.841 94.119C10.141 93.759 9.24105 93.309 8.13105 92.769C7.02105 92.229 6.18105 91.849 5.60105 91.619C5.51105 91.579 5.48105 91.509 5.52105 91.409C5.56105 91.309 5.63105 91.269 5.72105 91.309C6.13105 91.469 6.54105 91.029 6.95105 89.979C7.63105 88.399 8.39105 86.5391 9.23105 84.399C9.66105 83.299 10.101 82.129 10.541 80.889L11.251 78.979C11.531 78.269 11.681 77.739 11.721 77.369C11.751 77.009 11.651 76.729 11.411 76.519C11.341 76.469 11.331 76.399 11.361 76.309C11.401 76.219 11.451 76.189 11.531 76.209C12.091 76.489 12.941 76.889 14.091 77.399C15.241 77.909 16.181 78.309 16.911 78.599C16.951 78.609 16.951 78.669 16.911 78.779C16.871 78.889 16.831 78.939 16.781 78.939C15.271 78.569 14.041 78.589 13.101 79.019C12.161 79.449 11.451 80.239 10.991 81.419C10.791 81.939 10.681 82.349 10.681 82.629C10.681 82.919 10.771 83.149 10.971 83.339C11.171 83.519 11.521 83.719 12.021 83.909L24.901 88.939C25.461 89.159 25.901 89.259 26.211 89.239C26.531 89.219 26.801 89.069 27.021 88.769C27.241 88.469 27.501 87.959 27.781 87.229C27.801 87.169 27.871 87.169 27.981 87.209C28.091 87.249 28.141 87.299 28.111 87.359C27.861 88.009 27.651 88.519 27.481 88.889L26.561 91.169L25.741 93.359C25.611 93.759 25.401 94.299 25.141 94.989C25.131 95.029 25.061 95.019 24.951 94.989C24.841 94.949 24.791 94.909 24.801 94.869C25.081 94.139 25.251 93.589 25.291 93.209C25.331 92.829 25.241 92.529 25.021 92.299C24.801 92.069 24.411 91.849 23.851 91.629L10.911 86.579C10.431 86.389 10.051 86.299 9.78105 86.299C9.51105 86.299 9.29105 86.409 9.11105 86.619C8.93105 86.829 8.74105 87.199 8.54105 87.719C8.10105 88.859 8.08105 89.919 8.50105 90.919L8.48105 90.909Z" fill="white"/>
<path d="M33.851 58.8284C33.711 58.7484 33.571 58.6484 33.431 58.5384C33.311 58.4384 33.201 58.3384 33.121 58.2384C33.031 58.1384 33.001 58.0784 33.031 58.0484L41.891 47.5084C41.891 47.5084 41.991 47.4984 42.121 47.5584C42.251 47.6284 42.381 47.7184 42.521 47.8284C42.641 47.9284 42.751 48.0384 42.851 48.1584C42.951 48.2784 42.981 48.3484 42.951 48.3784L34.111 58.8984C34.111 58.8984 34.001 58.8984 33.861 58.8284H33.851Z" fill="white"/>
</svg>
